<?xml version="1.0" encoding="UTF-8"?>
<!DOCTYPE svg PUBLIC "-//W3C//DTD SVG 1.1//EN" "http://www.w3.org/Graphics/SVG/1.1/DTD/svg11.dtd">
<!-- Creator: CorelDRAW 2021.5 -->
<svg xmlns="http://www.w3.org/2000/svg" xml:space="preserve" width="22.92mm" height="22.92mm" version="1.1" style="shape-rendering:geometricPrecision; text-rendering:geometricPrecision; image-rendering:optimizeQuality; fill-rule:evenodd; clip-rule:evenodd"
viewBox="0 0 2292 2292"
 xmlns:xlink="http://www.w3.org/1999/xlink"
 xmlns:xodm="http://www.corel.com/coreldraw/odm/2003">
 <defs>
  <style type="text/css">
   <![CDATA[
    .fil0 {fill:#24C95E}
   ]]>
  </style>
 </defs>
 <g id="Слой_x0020_1">
  <metadata id="CorelCorpID_0Corel-Layer"/>
  <path class="fil0" d="M1281.91 1129.26l0 0zm-586.37 1066.11c0,54.96 88.85,66.88 88.85,-4.44 0,-54.56 -88.85,-54.34 -88.85,4.44zm-692.97 39.98c0,39.05 14.26,53.31 53.31,53.31 19.39,0 143.96,-132.86 165.46,-154.37l399.8 -399.78c19.23,-19.25 69.96,-58.68 69.96,-89.96 0,-22.34 -22.08,-44.42 -44.42,-44.42 -33.7,0 -141.53,121.54 -169.91,149.92 -33.62,33.62 -474.2,464.28 -474.2,485.3zm1367.9 -2221.06c152.8,0 263,8.53 410.47,82.88 560.39,282.56 656.63,984.73 241.69,1399.67 -190.79,190.81 -394.47,254.31 -660.77,254.31 -40.76,0 -61.4,-8.88 -102.17,-8.88 -17.15,0 -333.39,349.99 -372.3,360.85 -27.51,7.68 -54.14,-9.02 -54.14,-54.34 0,-17.89 285.6,-298.44 319.84,-333.16 -207.75,-75.11 -364.96,-178.15 -495.03,-393.4 -16.69,-27.63 -27.88,-54.32 -42.48,-81.9 -22.47,15.05 -348.31,346.09 -403.12,400.89 -11.23,11.24 -63.85,78.98 -101.52,32.67 -31.63,-38.89 16.23,-76.19 41.56,-101.51 46.67,-46.68 407.09,-411.64 427.55,-425.34 -35.14,-73.27 -39.98,-235.41 -39.98,-310.95 0,-97.42 41.03,-242.71 85.87,-331.68 146.24,-290.18 414.46,-472.57 744.53,-490.11zm-88.56 1114.97l253.2 0c14.63,0 26.55,28.74 43.53,54.2l120.82 185.68c-4.53,16.98 -122.91,215.13 -141.91,248.99 -24.86,44.3 -16.48,33.09 -106.59,40.01 -42.35,3.25 -93.37,3.4 -135.57,-2.66 -51.67,-7.43 -37.87,-3.74 -59.91,-42.26l-124.94 -217.17c-19.33,-32.1 -15.02,-26.11 28.77,-91.77l77.32 -118.12c8.55,-13.34 29.36,-56.9 45.28,-56.9zm386.46 484.19l105.42 -187.75c13.18,-21.73 19.71,-17.5 48.81,-22.27 47.09,-7.71 157.62,-34.29 192.25,-34.29 -59.13,88.3 -263.11,237.38 -346.48,244.31zm-870.66 -248.75c66.21,15.41 162.54,28.56 219.81,42.27 19.16,4.6 14.73,2.2 23.47,16.51l112.1 194.42c-125.76,-29.32 -272.06,-154.31 -355.38,-253.2zm977.27 -44.42c-24.61,-46.51 -92.58,-142.36 -125.25,-194.59 -45.46,-72.68 -29.96,-38.35 -1.01,-140.45l47.61 -147.86c8.5,-25.12 11.95,-19.41 41.19,-25.43l215.14 -46.94c6.82,0 194.76,205.26 226.55,226.54 -5.18,62.07 -64.73,253.98 -95.49,268.76 -11.36,5.46 -292.23,52.04 -308.74,59.97zm-910.63 -555.27c19.57,0 185.66,40.45 211.51,46.13 22.61,4.97 34.33,1.53 42.6,19.58l77.15 247.91 -153.58 241.65c-20.85,-10.01 -284.76,-52.52 -304.75,-59.51 -41.26,-14.43 -106.78,-256.49 -97.35,-271.42l224.42 -224.34zm337.6 31.09l204.34 -146.59 204.33 146.59 -75.51 239.88 -253.2 0 -79.96 -239.88zm844 -355.37c27.3,20 83.9,147.31 97.21,187.08 49.54,148.12 33.3,193.82 44.93,243.81 -29.43,-19.72 -116.06,-119.94 -156.73,-158.68 -26.28,-25.03 -11.83,-51.93 -2.81,-129.68l17.4 -142.53zm-1417.04 426.44c14.03,-131.35 18.22,-200.98 81.44,-327.23 11.15,-22.28 36.03,-74.31 51.82,-85.88 0.73,32.39 34.76,200.55 37.04,234.21 0.98,14.31 2.62,9.17 -11.11,22.39 -28.13,27.07 -140.95,144.3 -159.19,156.51zm208.79 -515.28c55.39,-37.11 30.76,-62.08 257.63,-182.13 29.28,19.61 249.76,156.01 266.53,159.92l0 244.32 -192.78 135.94c-42.62,30.38 -44.5,19.88 -154.63,-6.2 -159.68,-37.81 -120.52,-5.64 -139.96,-122.12 -12.79,-76.63 -27.15,-154.51 -36.79,-229.73zm1088.31 324.27c-305.05,68.03 -218.2,74.5 -368.67,-31.12 -19.03,-13.36 -86.24,-66.79 -102.19,-71.04l0 -244.32 217.59 -155.61c11.5,-8.52 20.32,-15.16 35.51,-9.22 87.21,34.14 159.26,88.67 227.72,145.99 11.9,10.51 17.04,19.03 30.02,27.73l-39.98 337.59zm-519.72 -422l-199.9 -124.37c28.42,-2.38 59.52,-13.41 89.61,-17.01 110.32,-13.19 172.3,-14.38 287.97,12.56l-177.68 128.82z"/>
 </g>
</svg>
