<?xml version="1.0" encoding="UTF-8"?>
<!DOCTYPE svg PUBLIC "-//W3C//DTD SVG 1.1//EN" "http://www.w3.org/Graphics/SVG/1.1/DTD/svg11.dtd">
<!-- Creator: CorelDRAW 2021.5 -->
<svg xmlns="http://www.w3.org/2000/svg" xml:space="preserve" width="22.92mm" height="22.92mm" version="1.1" style="shape-rendering:geometricPrecision; text-rendering:geometricPrecision; image-rendering:optimizeQuality; fill-rule:evenodd; clip-rule:evenodd"
viewBox="0 0 2292 2292"
 xmlns:xlink="http://www.w3.org/1999/xlink"
 xmlns:xodm="http://www.corel.com/coreldraw/odm/2003">
 <defs>
  <style type="text/css">
   <![CDATA[
    .fil0 {fill:#24C95E}
   ]]>
  </style>
 </defs>
 <g id="Слой_x0020_1">
  <metadata id="CorelCorpID_0Corel-Layer"/>
  <path class="fil0" d="M156.78 633.79c-11.89,3 -20.59,-1.63 -32.89,14.7 -8.06,10.69 -11.92,26.93 -8.45,39.89 9.3,34.78 39.68,33.86 73.06,33.63 56.42,-0.38 162.15,6.47 212.23,-0.38 42.35,-5.79 73.58,-91.74 -34.9,-92.83l-186.41 -0.14c-18.77,0.93 -15.25,3.28 -22.64,5.13zm-106.27 283.39c-14.77,3.77 -22.01,-2.76 -35.86,16.14 -9.06,12.34 -10.56,32.38 -4.4,46.5 14.44,33.06 59.13,25.56 89.73,25.54 58.75,-0.05 173.42,6.77 225.48,-0.35 30.69,-4.19 45.52,-37.68 33.92,-63.89 -18.55,-41.93 -131.75,-28.75 -197.41,-28.75 -39.06,0 -78.71,-3.54 -111.46,4.81zm123.98 1151.24c-71.7,17.79 -34.67,97.91 16.71,86.93 55.66,-11.89 40.2,-101.05 -16.71,-86.93zm744.17 -611.9c20.81,2.59 125.54,80.38 145.6,98.88 45.07,41.56 65.88,124.51 31.03,175.17 -13.08,-2.57 -174.98,-123.44 -210.94,-150.23 -18.12,-13.49 -37.11,-18.27 -29.11,-40.23 4.12,-11.34 53.42,-75.69 63.42,-83.59zm591.2 -1438.58l64.86 0c109.9,14.12 208.52,99.62 207.88,239.08 -0.22,48.32 9.59,88.53 -53.17,88.58 0,86.97 15.69,128.41 -66.41,128.41 -52.5,104.51 -127.25,69.28 -159.41,66.42 6.62,27.31 27.69,75.25 38.57,103.12 17.03,43.62 56.19,167.37 84.27,194.69 49.91,48.57 13.97,38.74 98.56,38.71 87.38,-0.04 162.49,-14.71 205.36,73.59 18.85,38.84 14.7,76.33 -4.46,114.02 -19.88,39.1 -46.47,41.87 -72.5,64.78 0,50.3 -9.05,84.79 -49.2,114.63 -130.78,97.18 -223.22,-84.16 -300.6,-123.49 5.33,21.99 93.02,206.39 106.54,221.66 33.7,-9.44 57.89,-20.11 93.95,-25.6 98.82,-15.02 207.91,-4.29 299.59,43.31 352.22,182.89 368.38,690.82 1.74,873.5 -59.6,29.7 -120.04,46.82 -181.2,51.66l-72.85 0c-45.53,-3.56 -91.44,-13.72 -137.68,-30.39 -98.51,-35.5 -203.91,-124.14 -251.8,-217.55 -94.47,-184.23 -86.77,-369.17 40.45,-539.65 46.6,-62.44 96.59,-87.01 123.95,-113.21l-63.68 -129.76c-21.16,23.31 -73.96,135.64 -93.32,174.5l-183.07 352.7c-38.01,76.02 -19.32,60.57 -205.11,60.57 -22.83,240.27 -218.58,422.78 -445.71,442.79l-82.84 0c-36.06,-3.18 -72.47,-10.52 -108.69,-22.51 -19.68,-6.5 -32.47,-13.39 -38.08,-33.26 -4.85,-17.16 1.32,-35.54 14.64,-47.03 27.25,-23.49 70.7,1.12 105.84,6.75 89.26,14.31 149.64,4.56 231.05,-28.49 118.47,-48.09 230.69,-199.95 230.81,-318.25 -87.08,0 -174.16,0 -261.24,0 -75.59,0 -219.34,24.01 -168.46,-75.46 58.06,-113.48 120.86,-226.63 177.31,-340.76 -51.39,-12.23 -85.63,-26.88 -141.69,-26.88 -220.88,0 -418.23,191.14 -394.52,439.11 7.15,74.76 34.8,103.64 10.27,133.34 -19.22,23.28 -65.43,35.28 -86.71,-43.62 -8.67,-32.18 -13.97,-63.95 -16.11,-95.44l0 -64.68c3.03,-44.76 12.26,-89.06 27.05,-133.23 28,-83.63 72.64,-137.63 135.61,-200.92 122.82,-123.43 354.64,-158.77 510.38,-87.38 9.87,-40.72 92.98,-165.86 91.48,-189.7 -0.02,-0.35 -40.32,-90.07 -43.87,-97.01 -9.93,-19.41 -72.83,-33.07 -96.39,-45.31 -130.85,-68.03 -192.12,-257.65 -93.96,-377.48 135.47,-165.4 535.23,-421.42 762.64,-326.62 0,-92.94 2.04,-156.19 69.05,-223.19 40,-40.01 89.82,-62.44 140.88,-69.05zm-546.45 1735.72l-394.08 0 145.84 -283.52c69.71,35.03 44.68,53.37 44.26,79.96 -0.64,39.91 19.78,65.78 49.6,87.85 25.07,18.55 143.47,100.41 154.38,115.71zm686.32 -327.66c176.82,-77.36 417.89,18.5 499.18,209.28 86.24,202.4 10.54,407.58 -178.37,514.47 -290.78,164.52 -662.46,-124.55 -567,-456.31 26.01,-90.41 82.46,-177.48 161.68,-223.54 15.92,15.98 117.95,248.04 146.44,305.97 16.11,32.76 33.64,82.81 81.32,63.63 60.66,-24.4 -12.6,-123.33 -47.1,-204.12 -30.13,-70.54 -69.26,-138.18 -96.15,-209.38zm-831.3 7.72c-18.37,-18.12 -42.54,-33.12 -59.08,-47.95 16.74,-28.55 44.63,-99.21 63.51,-118.03 14.8,17.36 35.22,61.47 43.72,87.46 7.24,22.19 -19.94,45.88 -48.15,78.52zm370.8 142.83c-8.14,-9.25 -15.79,-28.05 -24.71,-41.71 -9.52,-14.57 -20.13,-25.46 -28.42,-37.99 23.3,-35.61 261.61,-354.59 274.53,-363.09 -0.05,37.07 -32.28,81.86 -50.12,113.72 -28.76,51.35 -151.97,306.76 -171.28,329.07zm-349.8 -495.92l190.65 52.22 -95.96 143.89c-21.87,-24.06 -78.71,-157.62 -94.69,-196.11zm224.66 357.5c-17.43,-3.06 -74.91,-49.67 -87.87,-61.32 93.43,-150.62 233.13,-328.28 328.14,-473.3 45,29.55 60.96,108.82 38.5,158.05 -18.66,40.89 -147.11,202.28 -183.36,250.58 -24.22,32.28 -69.87,100.88 -95.41,125.99zm678.63 -472.63c24.16,0 63.56,-4.33 84.56,4 45.57,18.08 14.46,86.11 -19.31,68.6l-65.25 -72.6zm-358.66 -163.99c15.67,-10.45 90.29,-31.46 106.27,-35.26 19.18,37.55 26.97,87.8 56.45,120.66l213.45 238.59c11.24,23.81 -3.63,51.53 -31.04,53.03 -32.92,1.81 -79.42,-53.11 -102.66,-74.7 -44.44,-41.29 -162.82,-136.44 -189.47,-173.62 -15.2,-21.22 -50.1,-103.99 -53,-128.7zm-159.4 57.73l-137.25 194.5 -173.63 -47.46c-58.21,-14.83 -114.62,-33.19 -173.56,-47.83 -157.88,-39.23 -191.41,-183.81 -133.05,-260.63 89.91,-118.34 217.44,-15.75 309.41,22.28 49.62,20.52 101.9,45.97 151.57,69.82l156.51 69.32zm-456.07 -305.53c81.12,-73.57 295.7,-167.39 408.56,-175.93 69.25,-5.25 152.81,39.13 193.7,96.16 42.03,58.61 58.55,141.15 88.48,208.18l-110.28 32.31c-8.91,-19.67 -11.29,-44.38 -28.54,-57.35 -21.51,-16.17 -115.14,-29.58 -42.72,126.88l-509.2 -230.25zm624.33 -199.25l0 -57.56c61.48,0 106.25,-9.44 132.01,14.1 48.07,43.95 43.62,34.6 111.52,34.6 0,69.07 -0.17,18.79 -31.83,56.73 -14.46,17.31 -23.93,36.83 -40.16,52.83 -38.56,4.54 -68.08,-16.65 -109.55,-16.57 -14.82,-29.49 -61.99,-66.3 -61.99,-84.13zm301.09 -101.84c-127.61,0 -83.02,7.56 -133.94,-34.32 -31.22,-25.69 -115.74,-14.39 -158.3,-14.39 16.11,-67.16 98.47,-107.38 165.9,-95.08 69.91,12.75 124.83,69.11 126.34,143.79z"/>
 </g>
</svg>
