<?xml version="1.0" encoding="UTF-8"?>
<!DOCTYPE svg PUBLIC "-//W3C//DTD SVG 1.1//EN" "http://www.w3.org/Graphics/SVG/1.1/DTD/svg11.dtd">
<!-- Creator: CorelDRAW 2021.5 -->
<svg xmlns="http://www.w3.org/2000/svg" xml:space="preserve" width="22.92mm" height="22.92mm" version="1.1" style="shape-rendering:geometricPrecision; text-rendering:geometricPrecision; image-rendering:optimizeQuality; fill-rule:evenodd; clip-rule:evenodd"
viewBox="0 0 2292 2292"
 xmlns:xlink="http://www.w3.org/1999/xlink"
 xmlns:xodm="http://www.corel.com/coreldraw/odm/2003">
 <defs>
  <style type="text/css">
   <![CDATA[
    .fil0 {fill:#24C95E}
   ]]>
  </style>
 </defs>
 <g id="Слой_x0020_1">
  <metadata id="CorelCorpID_0Corel-Layer"/>
  <g id="_1877027696976">
   <path class="fil0" d="M1400.2 1854.39l371.61 0 0 376.08 -371.61 0 0 -376.08zm886.49 443.24l-2292.32 0 0 -2292.32 2292.32 0 0 1956.54 -67.16 0 0 -107.46 -376.08 0 0 376.08 376.08 0 0 -201.47 67.16 0 0 268.63zm-1334.21 -443.24l376.09 0 0 376.08 -376.09 0 0 -376.08zm-890.96 0l376.09 0 0 376.08 -376.09 0 0 -376.08zm810.38 376.08l-362.66 0 0 -376.08 376.09 0 0 362.65c0,10.32 -3.12,13.43 -13.43,13.43zm971.55 -823.8l376.08 0 0 376.08 -376.08 0 0 -376.08zm-1781.93 0l376.09 0 0 376.08 -376.09 0 0 -376.08zm1781.93 -443.25l376.08 0 0 376.09 -376.08 0 0 -376.09zm-1405.84 376.09l-376.09 0 0 -376.09 376.09 0 0 125.36 71.63 0 0 -568.6 1262.57 0 0 1262.57 -1262.57 0 0 -617.85c0,-20.28 -22.96,-13.43 -71.63,-13.43l0 188.04zm1405.84 -819.33l376.08 0 0 371.61 -376.08 0 0 -371.61zm-1781.93 0l376.09 0 0 371.61 -376.09 0 0 -371.61zm1781.93 -447.72l376.08 0 0 376.09 -376.08 0 0 -376.09zm-443.25 0l371.61 0 0 376.09 -371.61 0 0 -376.09zm-447.72 0l376.09 0 0 376.09 -376.09 0 0 -376.09zm-443.24 0l362.66 0c10.31,0 13.43,3.12 13.43,13.43l0 362.66 -376.09 0 0 -376.09zm-447.72 0l376.09 0 0 376.09 -376.09 0 0 -376.09z"/>
   <path class="fil0" d="M823.71 1251.03l237.34 235.13 -138.8 140.99 -237.31 -234.99 138.77 -141.13zm-239.46 141.1l335.8 333.51 239.49 -237.28 -333.51 -335.8 -241.78 239.57z"/>
   <path class="fil0" d="M1139.42 836.95c15.38,22.43 61.51,63.75 82.82,85.06 28.7,28.7 54.12,54.12 82.82,82.84 18.16,18.15 150.74,159.05 171.26,164.53l238.4 -236.19 -161.22 -158.88 -46.82 49.35 107.33 109.52c-7.69,11.84 -123.93,132.83 -142.17,137.71l-233.92 -231.72 138.8 -140.99 80.66 78.23 51.35 -49.21 -129.85 -127.49 -239.46 237.24z"/>
   <path class="fil0" d="M1982.24 273.93c0,-33.09 5.54,-58.2 53.73,-58.2 28.01,0 44.77,24.84 44.77,53.73 0,60.76 -98.5,62.16 -98.5,4.47zm-71.63 -8.95c0,165.5 237.29,150.26 237.29,17.91 0,-46.7 2.12,-67.32 -34.56,-104.24 -72.43,-72.88 -202.73,-22.41 -202.73,86.33z"/>
   <path class="fil0" d="M298.81 2046.9c0,12.64 -7.93,27.75 -14.36,34.89 -41.42,45.91 -123.17,-21.12 -72.15,-72.15 30.77,-30.78 86.51,-10.75 86.51,37.26zm-170.13 -4.47c0,173.02 237.29,150.08 237.29,17.92 0,-38.39 -1.66,-71.39 -32.3,-102.03 -65.67,-65.66 -204.99,-29.96 -204.99,84.11z"/>
   <path class="fil0" d="M2022.54 1997.66c25.18,0 58.2,4.34 58.2,44.77 0,34.61 -19.11,53.72 -53.73,53.72 -60.76,0 -62.16,-98.49 -4.47,-98.49zm-111.93 44.77c0,70.13 48.19,120.88 102.97,120.88 47.69,0 68.44,1.72 106.49,-36.78 66.34,-67.14 24.45,-200.51 -88.58,-200.51 -68.21,0 -120.88,48.42 -120.88,116.41z"/>
   <path class="fil0" d="M245.09 215.73c62.75,0 67.83,73.7 27.7,95.07 -19.02,10.14 -42.6,6.9 -58.16,-6.39 -31.99,-27.34 -16.52,-88.68 30.46,-88.68zm-116.41 49.25c0,65.39 50.72,120.89 107.45,120.89l22.39 0c55.09,0 107.45,-51.95 107.45,-107.45 0,-54.07 -14.49,-100.94 -68.82,-123.71 -80.06,-33.54 -168.47,20.41 -168.47,110.27z"/>
   <path class="fil0" d="M1019.64 215.73c85.05,0 71.64,12.5 71.64,-58.19 0,-20.28 -22.97,-13.44 -71.64,-13.44l0 71.63z"/>
   <path class="fil0" d="M1910.61 1097.75c85.04,0 71.63,12.49 71.63,-58.21 0,-20.28 -22.97,-13.44 -71.63,-13.44l0 71.65z"/>
   <path class="fil0" d="M567.45 591.82l0 58.21 71.63 0c0,-85.05 12.5,-71.65 -58.2,-71.65 -10.32,0 -13.43,3.12 -13.43,13.44z"/>
   <path class="fil0" d="M701.76 591.82l0 58.21 71.64 0c0,-85.05 12.5,-71.65 -58.21,-71.65 -10.31,0 -13.43,3.12 -13.43,13.44z"/>
   <polygon class="fil0" points="128.68,1540.99 195.84,1540.99 195.84,1473.82 128.68,1473.82 "/>
  </g>
 </g>
</svg>
