<svg width="92" height="92" version="1.1" xmlns="http://www.w3.org/2000/svg" desc="Created with imagetracer.js version 1.2.6" ><path fill="rgb(36,196,110)" stroke="rgb(36,196,110)" stroke-width="1" opacity="1" d="M 80 0 L 83 0.5 L 80 2 L 80 0 Z " /><path fill="rgb(36,196,110)" stroke="rgb(36,196,110)" stroke-width="1" opacity="1" d="M 0.5 6 L 1.5 8 Q -1.3 8.7 0.5 6 Z " /><path fill="rgb(36,196,110)" stroke="rgb(36,196,110)" stroke-width="1" opacity="1" d="M 8.5 7 L 13 7.5 L 8.5 8 L 8.5 7 Z " /><path fill="rgb(36,196,110)" stroke="rgb(36,196,110)" stroke-width="1" opacity="1" d="M 7.5 10 L 8 12.5 L 6 11.5 L 7.5 10 Z " /><path fill="rgb(36,196,110)" stroke="rgb(36,196,110)" stroke-width="1" opacity="1" d="M 23 23 Q 26 22 25 25 Q 22 26 23 23 Z " /><path fill="rgb(36,196,110)" stroke="rgb(36,196,110)" stroke-width="1" opacity="1" d="M 66 36 Q 69 35 68 38 Q 65 39 66 36 Z " /><path fill="rgb(36,196,110)" stroke="rgb(36,196,110)" stroke-width="1" opacity="1" d="M 63.5 39 L 64.5 41 Q 61.7 41.7 63.5 39 Z " /><path fill="rgb(36,196,110)" stroke="rgb(36,196,110)" stroke-width="1" opacity="1" d="M 37.5 50 Q 42 52 38.5 54 L 37.5 50 Z " /><path fill="rgb(36,196,110)" stroke="rgb(36,196,110)" stroke-width="1" opacity="1" d="M 28.5 58 L 29.5 60 Q 26.7 60.7 28.5 58 Z " /><path fill="rgb(36,196,110)" stroke="rgb(36,196,110)" stroke-width="1" opacity="1" d="M 72.5 70 L 72 71.5 L 71 73.5 L 71.5 75 L 69.5 72 L 72.5 70 Z " /><path fill="rgb(45,195,93)" stroke="rgb(45,195,93)" stroke-width="1" opacity="1" d="M 84.5 9 L 85 11.5 L 84 11.5 L 84.5 9 Z " /><path fill="rgb(45,195,93)" stroke="rgb(45,195,93)" stroke-width="1" opacity="1" d="M 12.5 12 L 13.5 14 L 12.5 12 Z " /><path fill="rgb(45,195,93)" stroke="rgb(45,195,93)" stroke-width="1" opacity="1" d="M 18.5 18 L 17.5 20 L 16 19.5 L 18.5 18 Z " /><path fill="rgb(45,195,93)" stroke="rgb(45,195,93)" stroke-width="1" opacity="1" d="M 50.5 30 L 51.5 32 L 50.5 30 Z " /><path fill="rgb(45,195,93)" stroke="rgb(45,195,93)" stroke-width="1" opacity="1" d="M 74.5 38 L 73.5 40 L 74.5 38 Z " /><path fill="rgb(45,195,93)" stroke="rgb(45,195,93)" stroke-width="1" opacity="1" d="M 56.5 40 L 58 42.5 L 56 43.5 L 57 41.5 L 56.5 40 Z " /><path fill="rgb(45,195,93)" stroke="rgb(45,195,93)" stroke-width="1" opacity="1" d="M 61.5 41 Q 63.8 40.3 63 42.5 L 61 43.5 L 61.5 41 Z " /><path fill="rgb(45,195,93)" stroke="rgb(45,195,93)" stroke-width="1" opacity="1" d="M 30.5 50 L 31.5 52 L 30.5 50 Z " /><path fill="rgb(45,195,93)" stroke="rgb(45,195,93)" stroke-width="1" opacity="1" d="M 26 54 Q 29 53 28 56 Q 25 57 26 54 Z " /><path fill="rgb(45,195,93)" stroke="rgb(45,195,93)" stroke-width="1" opacity="1" d="M 40.5 56 L 42.5 57 L 44 56.5 L 41.5 58 L 40.5 56 Z " /><path fill="rgb(45,195,93)" stroke="rgb(45,195,93)" stroke-width="1" opacity="1" d="M 42.5 60 Q 45.5 61.5 42.5 63 Q 40.3 63.8 41 61.5 L 42.5 60 Z " /><path fill="rgb(45,195,93)" stroke="rgb(45,195,93)" stroke-width="1" opacity="1" d="M 73.5 74 L 74 75.5 L 72 76.5 L 73.5 74 Z " /><path fill="rgb(45,195,93)" stroke="rgb(45,195,93)" stroke-width="1" opacity="1" d="M 89.5 77 L 90.5 79 L 89.5 77 Z " /><path fill="rgb(27,203,96)" stroke="rgb(27,203,96)" stroke-width="1" opacity="1" d="M 19 0 L 21 0.5 L 21 8 L 19 7.5 L 19 0 Z " /><path fill="rgb(27,203,96)" stroke="rgb(27,203,96)" stroke-width="1" opacity="1" d="M 64.5 0 L 73 0.5 Q 72.5 3.5 68.5 3 Q 64.5 2.5 64.5 0 Z " /><path fill="rgb(27,203,96)" stroke="rgb(27,203,96)" stroke-width="1" opacity="1" d="M 76.5 0 L 80 1.5 L 77.5 2 L 76.5 0 Z " /><path fill="rgb(27,203,96)" stroke="rgb(27,203,96)" stroke-width="1" opacity="1" d="M 84.5 0 L 85 3 L 82 2.5 L 84 2 L 84.5 0 Z " /><path fill="rgb(27,203,96)" stroke="rgb(27,203,96)" stroke-width="1" opacity="1" d="M 10.5 1 Q 13.1 0.3 12 3 L 8 2.5 L 10.5 1 Z " /><path fill="rgb(27,203,96)" stroke="rgb(27,203,96)" stroke-width="1" opacity="1" d="M 39.5 2 L 46 2.5 L 39.5 3 L 39.5 2 Z " /><path fill="rgb(27,203,96)" stroke="rgb(27,203,96)" stroke-width="1" opacity="1" d="M 7.5 7 L 8 9.5 L 6 10.5 L 7.5 7 Z " /><path fill="rgb(27,203,96)" stroke="rgb(27,203,96)" stroke-width="1" opacity="1" d="M 77.5 9 L 79 11.5 L 77 10.5 L 77.5 9 Z " /><path fill="rgb(27,203,96)" stroke="rgb(27,203,96)" stroke-width="1" opacity="1" d="M 0 10 Q 3 9 2 12 Q -1 13 0 10 Z " /><path fill="rgb(27,203,96)" stroke="rgb(27,203,96)" stroke-width="1" opacity="1" d="M 89 10 L 92 10 L 92 16 L 89 16 L 89 10 Z " /><path fill="rgb(27,203,96)" stroke="rgb(27,203,96)" stroke-width="1" opacity="1" d="M 10.5 13 L 13 14.5 L 11.5 15 L 10.5 13 Z " /><path fill="rgb(27,203,96)" stroke="rgb(27,203,96)" stroke-width="1" opacity="1" d="M 19 14 Q 22 13 21 16 Q 18 17 19 14 Z " /><path fill="rgb(27,203,96)" stroke="rgb(27,203,96)" stroke-width="1" opacity="1" d="M 0 19 L 13.5 19 L 14 21 L 0.5 21 L 0 19 Z " /><path fill="rgb(27,203,96)" stroke="rgb(27,203,96)" stroke-width="1" opacity="1" d="M 28.5 19 L 27.5 21 L 25 20.5 L 28.5 19 Z " /><path fill="rgb(27,203,96)" stroke="rgb(27,203,96)" stroke-width="1" opacity="1" d="M 32.5 19 L 41 20.5 L 30.5 21 L 30.5 20 L 32.5 19 Z " /><path fill="rgb(27,203,96)" stroke="rgb(27,203,96)" stroke-width="1" opacity="1" d="M 47.5 19 L 53.5 20 L 55.5 19 L 54.5 21 L 47.5 20 L 47.5 19 Z " /><path fill="rgb(27,203,96)" stroke="rgb(27,203,96)" stroke-width="1" opacity="1" d="M 64 19 L 87.5 19 L 88 21 L 64.5 21 L 64 19 Z " /><path fill="rgb(27,203,96)" stroke="rgb(27,203,96)" stroke-width="1" opacity="1" d="M 20.5 21 L 21 24.5 L 20 24.5 L 20.5 21 Z " /><path fill="rgb(27,203,96)" stroke="rgb(27,203,96)" stroke-width="1" opacity="1" d="M 2.5 25 L 3 30.5 L 0.5 34 L 0 30 L 2 30 L 2.5 25 Z " /><path fill="rgb(27,203,96)" stroke="rgb(27,203,96)" stroke-width="1" opacity="1" d="M 20.5 29 L 21 42 Q 18.3 43.1 19 40.5 L 20 35.5 L 19 32.5 L 20.5 29 Z " /><path fill="rgb(27,203,96)" stroke="rgb(27,203,96)" stroke-width="1" opacity="1" d="M 2.5 38 L 3 48 Q -1.1 49.3 0 46 L 2 45.5 L 2.5 38 Z " /><path fill="rgb(27,203,96)" stroke="rgb(27,203,96)" stroke-width="1" opacity="1" d="M 58 43 Q 61 42 60 45 Q 57 46 58 43 Z " /><path fill="rgb(27,203,96)" stroke="rgb(27,203,96)" stroke-width="1" opacity="1" d="M 31.5 49 L 36 50.5 L 34.5 51 L 32.5 51 L 31.5 49 Z " /><path fill="rgb(27,203,96)" stroke="rgb(27,203,96)" stroke-width="1" opacity="1" d="M 20.5 52 L 21 54.5 L 20 54.5 L 20.5 52 Z " /><path fill="rgb(27,203,96)" stroke="rgb(27,203,96)" stroke-width="1" opacity="1" d="M 2.5 56 L 3 57.5 L 1.5 60 L 1 58.5 L 2.5 56 Z " /><path fill="rgb(27,203,96)" stroke="rgb(27,203,96)" stroke-width="1" opacity="1" d="M 19.5 56 L 21 69.5 L 18 71.5 L 20 68.5 L 19 67.5 L 19.5 56 Z " /><path fill="rgb(27,203,96)" stroke="rgb(27,203,96)" stroke-width="1" opacity="1" d="M 43 58 L 45 58.5 L 43 59.5 L 43 58 Z " /><path fill="rgb(27,203,96)" stroke="rgb(27,203,96)" stroke-width="1" opacity="1" d="M 0.5 62 L 2 63.5 Q 0.3 71.7 3 75.5 L 3 77.5 Q 4.1 80.8 1.5 80 L 0 76.5 L 1 73.5 L 0 72.5 L 0.5 62 Z " /><path fill="rgb(27,203,96)" stroke="rgb(27,203,96)" stroke-width="1" opacity="1" d="M 33.5 64 L 37 66.5 L 35 67 Q 36.1 64.3 33.5 65 L 33.5 64 Z " /><path fill="rgb(27,203,96)" stroke="rgb(27,203,96)" stroke-width="1" opacity="1" d="M 73.5 71 L 74 72.5 L 72 73.5 L 73.5 71 Z " /><path fill="rgb(27,203,96)" stroke="rgb(27,203,96)" stroke-width="1" opacity="1" d="M 89.5 71 L 92 77.5 L 89 75.5 L 89.5 71 Z " /><path fill="rgb(27,203,96)" stroke="rgb(27,203,96)" stroke-width="1" opacity="1" d="M 20.5 72 L 21 77 Q 17.7 78.3 19 73.5 L 20.5 72 Z " /><path fill="rgb(27,203,96)" stroke="rgb(27,203,96)" stroke-width="1" opacity="1" d="M 81.5 77 L 82.5 79 L 81.5 77 Z " /><path fill="rgb(27,203,96)" stroke="rgb(27,203,96)" stroke-width="1" opacity="1" d="M 2.5 82 L 3 83.5 L 0.5 85 L 0.5 84 Q 3 84.7 2.5 82 Z " /><path fill="rgb(27,203,96)" stroke="rgb(27,203,96)" stroke-width="1" opacity="1" d="M 82.5 85 L 81.5 87 L 82.5 85 Z " /><path fill="rgb(27,203,96)" stroke="rgb(27,203,96)" stroke-width="1" opacity="1" d="M 90 86 L 92 86.5 L 90 87.5 L 90 86 Z " /><path fill="rgb(27,203,96)" stroke="rgb(27,203,96)" stroke-width="1" opacity="1" d="M 26 89 L 35.5 89 L 36 92 L 26.5 92 L 26 89 Z " /><path fill="rgb(27,203,96)" stroke="rgb(27,203,96)" stroke-width="1" opacity="1" d="M 52 89 L 58 89 L 58 92 L 52 92 L 52 89 Z " /><path fill="rgb(27,203,96)" stroke="rgb(27,203,96)" stroke-width="1" opacity="1" d="M 68 89 L 76 89 L 76 92 L 68 92 L 68 89 Z " /><path fill="rgb(37,200,89)" stroke="rgb(37,200,89)" stroke-width="1" opacity="1" d="M 14.5 0 L 18 0.5 L 15.5 2 L 14.5 0 Z " /><path fill="rgb(37,200,89)" stroke="rgb(37,200,89)" stroke-width="1" opacity="1" d="M 45 0 L 53.5 0 L 56 2.5 Q 56.8 4.8 54.5 4 L 52.5 2 L 46.5 1 L 45 1.5 L 45 0 Z " /><path fill="rgb(37,200,89)" stroke="rgb(37,200,89)" stroke-width="1" opacity="1" d="M 78.5 12 Q 80.8 11.3 80 13.5 L 78.5 12 Z " /><path fill="rgb(37,200,89)" stroke="rgb(37,200,89)" stroke-width="1" opacity="1" d="M 38.5 17 L 39.5 19 L 38.5 17 Z " /><path fill="rgb(37,200,89)" stroke="rgb(37,200,89)" stroke-width="1" opacity="1" d="M 22 19 Q 25 18 24 21 Q 21 22 22 19 Z " /><path fill="rgb(37,200,89)" stroke="rgb(37,200,89)" stroke-width="1" opacity="1" d="M 55.5 26 L 58 27.5 L 54.5 29 L 54 27.5 L 55.5 26 Z " /><path fill="rgb(37,200,89)" stroke="rgb(37,200,89)" stroke-width="1" opacity="1" d="M 51.5 30 L 53 30.5 L 50.5 32 L 51.5 30 Z " /><path fill="rgb(37,200,89)" stroke="rgb(37,200,89)" stroke-width="1" opacity="1" d="M 73.5 36 Q 76.5 37.5 73.5 39 L 73.5 36 Z " /><path fill="rgb(37,200,89)" stroke="rgb(37,200,89)" stroke-width="1" opacity="1" d="M 54.5 39 L 57 43 Q 54.3 44.1 55 41.5 L 54.5 39 Z " /><path fill="rgb(37,200,89)" stroke="rgb(37,200,89)" stroke-width="1" opacity="1" d="M 40.5 54 L 43 55 L 44 57.5 L 42.5 57 L 40 55.5 L 40.5 54 Z " /><path fill="rgb(37,200,89)" stroke="rgb(37,200,89)" stroke-width="1" opacity="1" d="M 25.5 55 L 28 56.5 L 26.5 57 L 25.5 55 Z " /><path fill="rgb(32,200,98)" stroke="rgb(32,200,98)" stroke-width="1" opacity="1" d="M 26 0 L 31.5 0 L 32 1.5 L 32.5 3 Q 31.3 0.7 26.5 2 L 24.5 3 L 24.5 2 Q 27.1 2.7 26 0 Z " /><path fill="rgb(32,200,98)" stroke="rgb(32,200,98)" stroke-width="1" opacity="1" d="M 34 0 Q 37 -1 36 2 Q 33 3 34 0 Z " /><path fill="rgb(32,200,98)" stroke="rgb(32,200,98)" stroke-width="1" opacity="1" d="M 56.5 1 L 60.5 2 L 64.5 1 L 63.5 3 Q 56.3 4.5 56.5 1 Z " /><path fill="rgb(32,200,98)" stroke="rgb(32,200,98)" stroke-width="1" opacity="1" d="M 52.5 19 L 54 19.5 L 50.5 21 L 50.5 20 L 52.5 19 Z " /><path fill="rgb(32,200,98)" stroke="rgb(32,200,98)" stroke-width="1" opacity="1" d="M 0.5 21 L 3 21.5 L 0.5 22 L 0.5 21 Z " /><path fill="rgb(32,200,98)" stroke="rgb(32,200,98)" stroke-width="1" opacity="1" d="M 0 24 Q 3 22.8 2 26.5 L 0 25.5 L 0 24 Z " /><path fill="rgb(32,200,98)" stroke="rgb(32,200,98)" stroke-width="1" opacity="1" d="M 19.5 27 L 20.5 29 L 19.5 27 Z " /><path fill="rgb(32,200,98)" stroke="rgb(32,200,98)" stroke-width="1" opacity="1" d="M 64.5 33 L 66.5 36 L 64.5 33 Z " /><path fill="rgb(32,200,98)" stroke="rgb(32,200,98)" stroke-width="1" opacity="1" d="M 0.5 35 Q 3.5 36.5 0.5 38 L 0.5 35 Z " /><path fill="rgb(32,200,98)" stroke="rgb(32,200,98)" stroke-width="1" opacity="1" d="M 0.5 53 L 1.5 55 Q -1.3 55.7 0.5 53 Z " /><path fill="rgb(32,200,98)" stroke="rgb(32,200,98)" stroke-width="1" opacity="1" d="M 1.5 60 L 2 62.5 L 0 61.5 L 1.5 60 Z " /><path fill="rgb(32,200,98)" stroke="rgb(32,200,98)" stroke-width="1" opacity="1" d="M 20.5 67 L 19.5 69 L 20.5 67 Z " /><path fill="rgb(32,200,98)" stroke="rgb(32,200,98)" stroke-width="1" opacity="1" d="M 2.5 69 L 3 73.5 L 2 73.5 L 2.5 69 Z " /><path fill="rgb(32,200,98)" stroke="rgb(32,200,98)" stroke-width="1" opacity="1" d="M 0 89 L 15.5 89 L 16 92 L 0.5 92 L 0 89 Z " /><path fill="rgb(32,200,98)" stroke="rgb(32,200,98)" stroke-width="1" opacity="1" d="M 24 89 Q 27.3 87.9 26 92 Q 22.7 93.1 24 89 Z " /><path fill="rgb(32,200,98)" stroke="rgb(32,200,98)" stroke-width="1" opacity="1" d="M 44 89 L 52 89 L 52 92 L 44 92 L 44 89 Z " /><path fill="rgb(32,200,98)" stroke="rgb(32,200,98)" stroke-width="1" opacity="1" d="M 76 89 Q 81.6 87.1 80 92 Q 74.4 93.9 76 89 Z " /><path fill="rgb(26,205,88)" stroke="rgb(26,205,88)" stroke-width="1" opacity="1" d="M 0 0 L 5 2.5 L 3 3 L 2.5 5 L 0 0 Z " /><path fill="rgb(26,205,88)" stroke="rgb(26,205,88)" stroke-width="1" opacity="1" d="M 40 0 L 45 0 L 45 2 L 40 2 L 40 0 Z " /><path fill="rgb(26,205,88)" stroke="rgb(26,205,88)" stroke-width="1" opacity="1" d="M 85 0 Q 89.1 -1.3 88 2 L 85.5 3 L 85 0 Z " /><path fill="rgb(26,205,88)" stroke="rgb(26,205,88)" stroke-width="1" opacity="1" d="M 49.5 2 L 53 2.5 L 49.5 3 L 49.5 2 Z " /><path fill="rgb(26,205,88)" stroke="rgb(26,205,88)" stroke-width="1" opacity="1" d="M 79.5 7 L 80.5 9 Q 78.3 8.3 79 10.5 L 78 10.5 L 79.5 7 Z " /><path fill="rgb(26,205,88)" stroke="rgb(26,205,88)" stroke-width="1" opacity="1" d="M 19 8 L 21 8 L 21 14 L 19 14 L 19 8 Z " /><path fill="rgb(26,205,88)" stroke="rgb(26,205,88)" stroke-width="1" opacity="1" d="M 0 12 Q 4.9 10.4 3 16 Q -1.9 17.6 0 12 Z " /><path fill="rgb(26,205,88)" stroke="rgb(26,205,88)" stroke-width="1" opacity="1" d="M 80.5 13 L 81 15 L 79 14.5 L 80.5 13 Z " /><path fill="rgb(26,205,88)" stroke="rgb(26,205,88)" stroke-width="1" opacity="1" d="M 37.5 18 L 40 19.5 L 35.5 20 L 35.5 19 L 37.5 18 Z " /><path fill="rgb(26,205,88)" stroke="rgb(26,205,88)" stroke-width="1" opacity="1" d="M 14.5 19 L 15.5 21 Q 12.7 21.7 14.5 19 Z " /><path fill="rgb(26,205,88)" stroke="rgb(26,205,88)" stroke-width="1" opacity="1" d="M 48 33 L 51 34.5 L 49.5 37 L 48 33 Z " /><path fill="rgb(26,205,88)" stroke="rgb(26,205,88)" stroke-width="1" opacity="1" d="M 19.5 35 L 20 39.5 L 18.5 39 Q 15.9 39.7 17 37 Q 19.8 38 19.5 35 Z " /><path fill="rgb(26,205,88)" stroke="rgb(26,205,88)" stroke-width="1" opacity="1" d="M 19 47 L 21 47.5 L 19 48.5 L 19 47 Z " /><path fill="rgb(26,205,88)" stroke="rgb(26,205,88)" stroke-width="1" opacity="1" d="M 33.5 47 L 37 49.5 L 34.5 50 L 33.5 47 Z " /><path fill="rgb(26,205,88)" stroke="rgb(26,205,88)" stroke-width="1" opacity="1" d="M 19.5 71 L 20 73 L 18 72.5 L 19.5 71 Z " /><path fill="rgb(26,205,88)" stroke="rgb(26,205,88)" stroke-width="1" opacity="1" d="M 9.5 78 L 11 78.5 L 8.5 80 L 9.5 78 Z " /><path fill="rgb(26,205,88)" stroke="rgb(26,205,88)" stroke-width="1" opacity="1" d="M 2.5 84 L 2 85.5 Q 3 89.3 0 88 Q -1.5 84.2 1.5 85 L 2.5 84 Z " /><path fill="rgb(26,205,88)" stroke="rgb(26,205,88)" stroke-width="1" opacity="1" d="M 81.5 85 L 82.5 87 L 81.5 85 Z " /><path fill="rgb(26,205,88)" stroke="rgb(26,205,88)" stroke-width="1" opacity="1" d="M 58 89 L 67.5 89 L 68 92 L 58.5 92 L 58 89 Z " /><path fill="rgb(26,205,88)" stroke="rgb(26,205,88)" stroke-width="1" opacity="1" d="M 19 90 Q 22 89 21 92 Q 18 93 19 90 Z " /><path fill="rgb(0,0,0)" stroke="rgb(0,0,0)" stroke-width="1" opacity="0" d="M 3 3 L 18 3 L 18 18 L 3 18 L 3 3 Z M 9 6 L 5 11 L 6 14 L 13 15 Q 16 14 15 9 Q 14 5 9 6 Z " /><path fill="rgb(0,0,0)" stroke="rgb(0,0,0)" stroke-width="1" opacity="0" d="M 21 3 L 36 3 L 36 18 L 21 18 L 21 3 Z " /><path fill="rgb(0,0,0)" stroke="rgb(0,0,0)" stroke-width="1" opacity="0" d="M 38 3 L 54 3 L 54 18 L 39.5 18 L 38 16.5 L 38 3 Z M 41 6 Q 40 9 44 8 Q 45 5 41 6 Z " /><path fill="rgb(0,0,0)" stroke="rgb(0,0,0)" stroke-width="1" opacity="0" d="M 56 3 L 72 3 L 72 18 L 56 18 L 56 3 Z " /><path fill="rgb(0,0,0)" stroke="rgb(0,0,0)" stroke-width="1" opacity="0" d="M 74 3 L 89 3 L 89 18 L 74 18 L 74 3 Z M 80 6 Q 76 7 77 13 Q 78 16 85 15 L 87 11 L 86 9 Q 85 5 80 6 Z " /><path fill="rgb(0,0,0)" stroke="rgb(0,0,0)" stroke-width="1" opacity="0" d="M 10.5 8 L 12 11.5 L 9.5 13 L 8 9 L 10.5 8 Z " /><path fill="rgb(0,0,0)" stroke="rgb(0,0,0)" stroke-width="1" opacity="0" d="M 81.5 8 L 84 9 L 82.5 13 L 80 11.5 L 81.5 8 Z " /><path fill="rgb(0,0,0)" stroke="rgb(0,0,0)" stroke-width="1" opacity="0" d="M 3 21 L 18 21 L 18 36 L 3 36 L 3 21 Z " /><path fill="rgb(0,0,0)" stroke="rgb(0,0,0)" stroke-width="1" opacity="0" d="M 21 21 L 72 21 L 72 70.5 L 70.5 72 L 21 72 L 21 47.5 L 19.5 46 L 18 46.5 L 18 54 L 3 54 L 3 38 L 16.5 38 Q 19 39.2 18 43 L 21 42.5 L 21 21 Z M 23 23 Q 22 28 26 26 Q 28 22 23 23 Z M 30 23 L 28 25 L 31 26 Q 32 22 30 23 Z M 56 24 L 46 34 L 60 47 L 69 38 L 63 31 L 61 33 L 65 38 L 60 43 L 50 34 L 56 28 Q 58 33 60 30 L 56 24 Z M 34 46 L 24 56 L 38 69 L 47 60 L 34 46 Z " /><path fill="rgb(0,0,0)" stroke="rgb(0,0,0)" stroke-width="1" opacity="0" d="M 74 21 L 89 21 L 89 36 L 74 36 L 74 21 Z " /><path fill="rgb(0,0,0)" stroke="rgb(0,0,0)" stroke-width="1" opacity="0" d="M 75.5 38 L 89 38 L 89 54 L 75.5 54 L 74 52.5 L 74 39.5 L 75.5 38 Z M 77 41 Q 76 46 80 44 Q 82 40 77 41 Z " /><path fill="rgb(0,0,0)" stroke="rgb(0,0,0)" stroke-width="1" opacity="0" d="M 33.5 50 L 43 59.5 L 37.5 65 L 34.5 63 L 33 60 L 30 58.5 L 28 55.5 L 33.5 50 Z " /><path fill="rgb(0,0,0)" stroke="rgb(0,0,0)" stroke-width="1" opacity="0" d="M 3 56 L 18 56 L 18 70.5 L 16.5 72 L 3 72 L 3 56 Z M 7 59 L 5 61 L 8 62 Q 9 58 7 59 Z " /><path fill="rgb(0,0,0)" stroke="rgb(0,0,0)" stroke-width="1" opacity="0" d="M 74 56 L 89 56 L 89 72 L 75.5 72 L 74 70.5 L 74 56 Z " /><path fill="rgb(0,0,0)" stroke="rgb(0,0,0)" stroke-width="1" opacity="0" d="M 3 74 L 18 74 L 18 89 L 3 89 L 3 74 Z M 10 77 L 8 78 Q 5 79 6 85 L 10 87 L 14 86 L 15 84 L 14 78 L 10 77 Z " /><path fill="rgb(0,0,0)" stroke="rgb(0,0,0)" stroke-width="1" opacity="0" d="M 21 74 L 36 74 L 36 89 L 21 89 L 21 74 Z " /><path fill="rgb(0,0,0)" stroke="rgb(0,0,0)" stroke-width="1" opacity="0" d="M 39.5 74 L 54 74 L 54 89 L 38 89 L 38 75.5 L 39.5 74 Z " /><path fill="rgb(0,0,0)" stroke="rgb(0,0,0)" stroke-width="1" opacity="0" d="M 56 74 L 70.5 74 L 72 75.5 L 72 89 L 56 89 L 56 74 Z " /><path fill="rgb(0,0,0)" stroke="rgb(0,0,0)" stroke-width="1" opacity="0" d="M 74 74 L 88.5 74 L 89 77.5 L 92 79 Q 93.1 81.7 90.5 81 Q 87.3 82.9 89 89 L 74 89 L 74 74 Z M 81 77 L 78 78 L 77 81 Q 76 86 81 87 L 85 86 L 87 83 L 86 80 L 81 77 Z " /><path fill="rgb(0,0,0)" stroke="rgb(0,0,0)" stroke-width="1" opacity="0" d="M 9.5 80 Q 14.1 78.8 12 84 L 8 82.5 L 9.5 80 Z " /><path fill="rgb(0,0,0)" stroke="rgb(0,0,0)" stroke-width="1" opacity="0" d="M 80 80 L 84 81.5 L 82.5 84 Q 77.9 85.2 80 80 Z " /><path fill="rgb(37,198,100)" stroke="rgb(37,198,100)" stroke-width="1" opacity="1" d="M 36 0 Q 39 -1 38 2 Q 35 3 36 0 Z " /><path fill="rgb(37,198,100)" stroke="rgb(37,198,100)" stroke-width="1" opacity="1" d="M 13 10 L 15 10.5 L 13 11.5 L 13 10 Z " /><path fill="rgb(37,198,100)" stroke="rgb(37,198,100)" stroke-width="1" opacity="1" d="M 84.5 12 L 83.5 14 L 84.5 12 Z " /><path fill="rgb(37,198,100)" stroke="rgb(37,198,100)" stroke-width="1" opacity="1" d="M 2.5 17 L 3.5 19 L 2.5 17 Z " /><path fill="rgb(37,198,100)" stroke="rgb(37,198,100)" stroke-width="1" opacity="1" d="M 20.5 26 L 21 27.5 L 19.5 31 L 19 28.5 L 20.5 26 Z " /><path fill="rgb(37,198,100)" stroke="rgb(37,198,100)" stroke-width="1" opacity="1" d="M 53.5 28 L 52.5 30 L 53.5 28 Z " /><path fill="rgb(37,198,100)" stroke="rgb(37,198,100)" stroke-width="1" opacity="1" d="M 29.5 52 L 28.5 54 L 29.5 52 Z " /><path fill="rgb(37,198,100)" stroke="rgb(37,198,100)" stroke-width="1" opacity="1" d="M 73.5 52 L 74.5 54 L 73.5 52 Z " /><path fill="rgb(37,198,100)" stroke="rgb(37,198,100)" stroke-width="1" opacity="1" d="M 32.5 63 L 35 63.5 L 32.5 64 L 32.5 63 Z " /><path fill="rgb(37,198,100)" stroke="rgb(37,198,100)" stroke-width="1" opacity="1" d="M 18.5 70 L 17.5 72 L 18.5 70 Z " /><path fill="rgb(37,198,100)" stroke="rgb(37,198,100)" stroke-width="1" opacity="1" d="M 19 78 Q 22 77 21 80 Q 18 81 19 78 Z " /><path fill="rgb(37,198,100)" stroke="rgb(37,198,100)" stroke-width="1" opacity="1" d="M 1.5 81 L 2 82.5 L 0 83.5 L 1.5 81 Z " /><path fill="rgb(37,198,100)" stroke="rgb(37,198,100)" stroke-width="1" opacity="1" d="M 84.5 82 L 86 82.5 L 82.5 85 L 84.5 82 Z " /><path fill="rgb(37,199,96)" stroke="rgb(37,199,96)" stroke-width="1" opacity="1" d="M 54.5 0 L 55.5 2 L 54.5 0 Z " /><path fill="rgb(37,199,96)" stroke="rgb(37,199,96)" stroke-width="1" opacity="1" d="M 16.5 1 Q 18.8 0.3 18 2.5 L 18.5 4 L 16.5 1 Z " /><path fill="rgb(37,199,96)" stroke="rgb(37,199,96)" stroke-width="1" opacity="1" d="M 22 1 Q 25 0 24 3 Q 21 4 22 1 Z " /><path fill="rgb(37,199,96)" stroke="rgb(37,199,96)" stroke-width="1" opacity="1" d="M 33.5 2 Q 37.3 1.3 38 3.5 L 36.5 3 Q 32.5 3.7 33.5 2 Z " /><path fill="rgb(37,199,96)" stroke="rgb(37,199,96)" stroke-width="1" opacity="1" d="M 14.5 11 L 13.5 13 L 14.5 11 Z " /><path fill="rgb(37,199,96)" stroke="rgb(37,199,96)" stroke-width="1" opacity="1" d="M 2.5 16 L 1.5 18 L 0 17.5 L 2.5 16 Z " /><path fill="rgb(37,199,96)" stroke="rgb(37,199,96)" stroke-width="1" opacity="1" d="M 18.5 21 L 20 23.5 L 19 23.5 L 18.5 21 Z " /><path fill="rgb(37,199,96)" stroke="rgb(37,199,96)" stroke-width="1" opacity="1" d="M 0 22 Q 3 21 2 24 Q -1 25 0 22 Z " /><path fill="rgb(37,199,96)" stroke="rgb(37,199,96)" stroke-width="1" opacity="1" d="M 65.5 37 L 66 39 L 64 38.5 L 65.5 37 Z " /><path fill="rgb(37,199,96)" stroke="rgb(37,199,96)" stroke-width="1" opacity="1" d="M 19.5 52 L 20 54.5 L 19 54.5 L 19.5 52 Z " /><path fill="rgb(37,199,96)" stroke="rgb(37,199,96)" stroke-width="1" opacity="1" d="M 1.5 55 L 0.5 57 L 1.5 55 Z " /><path fill="rgb(37,199,96)" stroke="rgb(37,199,96)" stroke-width="1" opacity="1" d="M 89 84 L 92 85.5 L 89 86 L 89 84 Z " /><path fill="rgb(31,201,94)" stroke="rgb(31,201,94)" stroke-width="1" opacity="1" d="M 18.5 0 L 19 2.5 L 18 2.5 L 18.5 0 Z " /><path fill="rgb(31,201,94)" stroke="rgb(31,201,94)" stroke-width="1" opacity="1" d="M 21.5 0 L 22 2.5 L 21 2.5 L 21.5 0 Z " /><path fill="rgb(31,201,94)" stroke="rgb(31,201,94)" stroke-width="1" opacity="1" d="M 24 0 Q 27.1 -0.8 26.5 2 L 32 2 Q 31 -1 34 0 Q 35.1 2.7 32.5 2 Q 31.3 4.3 26.5 3 L 24 2 L 24 0 Z " /><path fill="rgb(31,201,94)" stroke="rgb(31,201,94)" stroke-width="1" opacity="1" d="M 73.5 0 L 78 2.5 L 76.5 2 Q 72.7 2.5 73.5 0 Z " /><path fill="rgb(31,201,94)" stroke="rgb(31,201,94)" stroke-width="1" opacity="1" d="M 88 0 L 92 0 L 92 10 L 89 10 L 89 3 L 86.5 3 L 86.5 2 Q 89.1 2.7 88 0 Z " /><path fill="rgb(31,201,94)" stroke="rgb(31,201,94)" stroke-width="1" opacity="1" d="M 46 1 L 49 2.5 L 46 3 L 46 1 Z " /><path fill="rgb(31,201,94)" stroke="rgb(31,201,94)" stroke-width="1" opacity="1" d="M 64.5 2 L 68 2.5 L 64.5 3 L 64.5 2 Z " /><path fill="rgb(31,201,94)" stroke="rgb(31,201,94)" stroke-width="1" opacity="1" d="M 1.5 3 L 3 5.5 L 1 4.5 L 1.5 3 Z " /><path fill="rgb(31,201,94)" stroke="rgb(31,201,94)" stroke-width="1" opacity="1" d="M 78.5 8 L 79.5 10 L 78.5 8 Z " /><path fill="rgb(31,201,94)" stroke="rgb(31,201,94)" stroke-width="1" opacity="1" d="M 19 16 Q 21.7 14.9 21 17.5 L 20.5 19 Q 23.1 18.3 22 21 L 19.5 22 L 17 20.5 L 19 20 L 19 16 Z " /><path fill="rgb(31,201,94)" stroke="rgb(31,201,94)" stroke-width="1" opacity="1" d="M 89 16 L 92 16.5 L 92 72.5 L 92 74.5 L 91.5 76 L 89 70.5 L 89 21.5 L 88 19.5 L 89 16 Z " /><path fill="rgb(31,201,94)" stroke="rgb(31,201,94)" stroke-width="1" opacity="1" d="M 37.5 17 L 36.5 19 L 37.5 17 Z " /><path fill="rgb(31,201,94)" stroke="rgb(31,201,94)" stroke-width="1" opacity="1" d="M 40.5 19 Q 46.5 17.5 48 20.5 L 41.5 21 L 40.5 19 Z " /><path fill="rgb(31,201,94)" stroke="rgb(31,201,94)" stroke-width="1" opacity="1" d="M 56 19 L 63.5 19 L 64 21 L 56.5 21 L 56 19 Z " /><path fill="rgb(31,201,94)" stroke="rgb(31,201,94)" stroke-width="1" opacity="1" d="M 1 32 Q 4.7 30.8 3 36 L 0 34.5 L 1 32 Z " /><path fill="rgb(31,201,94)" stroke="rgb(31,201,94)" stroke-width="1" opacity="1" d="M 1.5 37 L 2 40 Q -0.7 41.1 0 38.5 L 1.5 37 Z " /><path fill="rgb(31,201,94)" stroke="rgb(31,201,94)" stroke-width="1" opacity="1" d="M 1.5 48 Q 3.8 47.3 3 49.5 L 2 51.5 L 3 54 L 0 52.5 Q -0.8 48.8 1.5 48 Z " /><path fill="rgb(31,201,94)" stroke="rgb(31,201,94)" stroke-width="1" opacity="1" d="M 19 50 Q 22 49 21 52 Q 18 53 19 50 Z " /><path fill="rgb(31,201,94)" stroke="rgb(31,201,94)" stroke-width="1" opacity="1" d="M 19.5 55 L 21 55.5 L 21 66.5 L 20 66.5 L 20 56.5 L 19.5 55 Z " /><path fill="rgb(31,201,94)" stroke="rgb(31,201,94)" stroke-width="1" opacity="1" d="M 17.5 72 L 18.5 74 L 17.5 72 Z " /><path fill="rgb(31,201,94)" stroke="rgb(31,201,94)" stroke-width="1" opacity="1" d="M 89.5 76 L 91.5 79 L 89.5 76 Z " /><path fill="rgb(31,201,94)" stroke="rgb(31,201,94)" stroke-width="1" opacity="1" d="M 85.5 81 L 86.5 83 L 85.5 81 Z " /><path fill="rgb(31,201,94)" stroke="rgb(31,201,94)" stroke-width="1" opacity="1" d="M 19 82 L 21 82 L 21 89 Q 25.5 87.5 24 92 Q 21 93 22 90 L 18 90 Q 19 93 16 92 Q 14.5 87.5 19 89 L 19 82 Z " /><path fill="rgb(31,201,94)" stroke="rgb(31,201,94)" stroke-width="1" opacity="1" d="M 0.5 88 L 3 88.5 L 0.5 89 L 0.5 88 Z " /><path fill="rgb(31,201,94)" stroke="rgb(31,201,94)" stroke-width="1" opacity="1" d="M 89.5 88 Q 94.1 86.8 92 92 L 80.5 92 L 80 89 L 88.5 89 L 89.5 88 Z " /><path fill="rgb(31,201,94)" stroke="rgb(31,201,94)" stroke-width="1" opacity="1" d="M 36 89 L 44 89 L 44 92 L 36 92 L 36 89 Z " /><path fill="rgb(32,200,102)" stroke="rgb(32,200,102)" stroke-width="1" opacity="1" d="M 5.5 0 L 8 1.5 L 5 2 L 5.5 0 Z " /><path fill="rgb(32,200,102)" stroke="rgb(32,200,102)" stroke-width="1" opacity="1" d="M 57 0 L 64 0.5 L 57 2 L 57 0 Z " /><path fill="rgb(32,200,102)" stroke="rgb(32,200,102)" stroke-width="1" opacity="1" d="M 0.5 5 Q 2.8 4.3 2 6.5 L 0.5 5 Z " /><path fill="rgb(32,200,102)" stroke="rgb(32,200,102)" stroke-width="1" opacity="1" d="M 11.5 8 L 12.5 10 L 11.5 8 Z " /><path fill="rgb(32,200,102)" stroke="rgb(32,200,102)" stroke-width="1" opacity="1" d="M 84.5 13 L 83.5 15 L 84.5 13 Z " /><path fill="rgb(32,200,102)" stroke="rgb(32,200,102)" stroke-width="1" opacity="1" d="M 25.5 19 L 28 19.5 L 25.5 20 L 25.5 19 Z " /><path fill="rgb(32,200,102)" stroke="rgb(32,200,102)" stroke-width="1" opacity="1" d="M 0.5 26 L 2 30 Q -1.8 31.2 0.5 26 Z " /><path fill="rgb(32,200,102)" stroke="rgb(32,200,102)" stroke-width="1" opacity="1" d="M 0 41 Q 3.3 39.7 2 44.5 L 0 45.5 L 0 41 Z " /><path fill="rgb(32,200,102)" stroke="rgb(32,200,102)" stroke-width="1" opacity="1" d="M 57.5 44 L 58.5 46 L 57.5 44 Z " /><path fill="rgb(32,200,102)" stroke="rgb(32,200,102)" stroke-width="1" opacity="1" d="M 0.5 58 L 1 60.5 L 0 60.5 L 0.5 58 Z " /><path fill="rgb(32,200,102)" stroke="rgb(32,200,102)" stroke-width="1" opacity="1" d="M 2.5 65 L 3 68.5 L 2 68.5 L 2.5 65 Z " /><path fill="rgb(32,200,102)" stroke="rgb(32,200,102)" stroke-width="1" opacity="1" d="M 73.5 70 L 72.5 72 L 73.5 70 Z " /><path fill="rgb(32,200,102)" stroke="rgb(32,200,102)" stroke-width="1" opacity="1" d="M 82.5 77 L 84.5 80 Q 82.3 80.8 83 78.5 L 82.5 77 Z " /><path fill="rgb(32,200,102)" stroke="rgb(32,200,102)" stroke-width="1" opacity="1" d="M 0.5 79 L 1.5 81 L 0.5 79 Z " /><path fill="rgb(32,200,102)" stroke="rgb(32,200,102)" stroke-width="1" opacity="1" d="M 90.5 82 L 91.5 84 Q 88.7 84.7 90.5 82 Z " /><path fill="rgb(32,200,102)" stroke="rgb(32,200,102)" stroke-width="1" opacity="1" d="M 7.5 84 Q 9.8 83.3 9 85.5 L 7.5 84 Z " /><path fill="rgb(48,192,105)" stroke="rgb(48,192,105)" stroke-width="1" opacity="1" d="M 0.5 8 Q 2.8 7.3 2 9.5 L 0.5 8 Z " /><path fill="rgb(48,192,105)" stroke="rgb(48,192,105)" stroke-width="1" opacity="1" d="M 6.5 8 L 7 9.5 L 5 10.5 L 6.5 8 Z " /><path fill="rgb(48,192,105)" stroke="rgb(48,192,105)" stroke-width="1" opacity="1" d="M 36.5 17 L 35.5 19 L 36.5 17 Z " /><path fill="rgb(48,192,105)" stroke="rgb(48,192,105)" stroke-width="1" opacity="1" d="M 48.5 18 L 51 18.5 L 48.5 19 L 48.5 18 Z " /><path fill="rgb(48,192,105)" stroke="rgb(48,192,105)" stroke-width="1" opacity="1" d="M 29 23 Q 32 22 31 25 Q 28 26 29 23 Z " /><path fill="rgb(48,192,105)" stroke="rgb(48,192,105)" stroke-width="1" opacity="1" d="M 55.5 24 L 47.5 33 L 55.5 24 Z " /><path fill="rgb(48,192,105)" stroke="rgb(48,192,105)" stroke-width="1" opacity="1" d="M 62.5 31 Q 65.5 32.5 62.5 34 L 61 33.5 L 62.5 31 Z " /><path fill="rgb(48,192,105)" stroke="rgb(48,192,105)" stroke-width="1" opacity="1" d="M 18.5 35 L 17.5 37 L 18.5 35 Z " /><path fill="rgb(48,192,105)" stroke="rgb(48,192,105)" stroke-width="1" opacity="1" d="M 73.5 35 L 74.5 37 L 73.5 35 Z " /><path fill="rgb(48,192,105)" stroke="rgb(48,192,105)" stroke-width="1" opacity="1" d="M 76 36 Q 79 35 78 38 Q 75 39 76 36 Z " /><path fill="rgb(48,192,105)" stroke="rgb(48,192,105)" stroke-width="1" opacity="1" d="M 50.5 37 L 54 38.5 L 52.5 40 L 50.5 37 Z " /><path fill="rgb(48,192,105)" stroke="rgb(48,192,105)" stroke-width="1" opacity="1" d="M 66.5 38 L 65.5 40 L 66.5 38 Z " /><path fill="rgb(48,192,105)" stroke="rgb(48,192,105)" stroke-width="1" opacity="1" d="M 62.5 40 L 63.5 42 L 62.5 40 Z " /><path fill="rgb(48,192,105)" stroke="rgb(48,192,105)" stroke-width="1" opacity="1" d="M 18.5 47 L 19 49.5 L 18 49.5 L 18.5 47 Z " /><path fill="rgb(48,192,105)" stroke="rgb(48,192,105)" stroke-width="1" opacity="1" d="M 32.5 47 L 27.5 53 L 32.5 47 Z " /><path fill="rgb(48,192,105)" stroke="rgb(48,192,105)" stroke-width="1" opacity="1" d="M 35.5 51 Q 38.8 49.9 38 52.5 L 36.5 52 L 35.5 51 Z " /><path fill="rgb(48,192,105)" stroke="rgb(48,192,105)" stroke-width="1" opacity="1" d="M 18.5 54 L 19 56.5 L 18 56.5 L 18.5 54 Z " /><path fill="rgb(48,192,105)" stroke="rgb(48,192,105)" stroke-width="1" opacity="1" d="M 74.5 55 L 73.5 57 L 74.5 55 Z " /><path fill="rgb(48,192,105)" stroke="rgb(48,192,105)" stroke-width="1" opacity="1" d="M 31.5 60 L 33.5 63 L 31.5 60 Z " /><path fill="rgb(48,192,105)" stroke="rgb(48,192,105)" stroke-width="1" opacity="1" d="M 40.5 62 Q 44 64 39.5 66 L 39 63.5 L 40.5 62 Z " /><path fill="rgb(48,192,105)" stroke="rgb(48,192,105)" stroke-width="1" opacity="1" d="M 73.5 67 L 74 70 L 72 69.5 L 73.5 67 Z " /><path fill="rgb(48,192,105)" stroke="rgb(48,192,105)" stroke-width="1" opacity="1" d="M 34 72 L 37 72.5 L 34 74 L 34 72 Z " /><path fill="rgb(48,192,105)" stroke="rgb(48,192,105)" stroke-width="1" opacity="1" d="M 55.5 72 Q 58.5 73.5 55.5 75 L 54 74.5 L 56 73.5 L 55.5 72 Z " /><path fill="rgb(48,192,105)" stroke="rgb(48,192,105)" stroke-width="1" opacity="1" d="M 68.5 72 L 69.5 74 L 68.5 72 Z " /><path fill="rgb(48,192,105)" stroke="rgb(48,192,105)" stroke-width="1" opacity="1" d="M 17.5 73 L 19 75.5 L 18 75.5 L 17.5 73 Z " /><path fill="rgb(48,192,105)" stroke="rgb(48,192,105)" stroke-width="1" opacity="1" d="M 36 76 Q 39.7 74.7 38 80.5 L 36 79.5 L 36 76 Z " /><path fill="rgb(48,192,105)" stroke="rgb(48,192,105)" stroke-width="1" opacity="1" d="M 73.5 76 L 74 77.5 L 72.5 80 L 72 77.5 L 73.5 76 Z " /><path fill="rgb(48,192,105)" stroke="rgb(48,192,105)" stroke-width="1" opacity="1" d="M 11.5 79 Q 13.8 78.3 13 80.5 L 11.5 79 Z " /><path fill="rgb(48,192,105)" stroke="rgb(48,192,105)" stroke-width="1" opacity="1" d="M 90.5 81 L 89.5 83 L 90.5 81 Z " /><path fill="rgb(48,192,105)" stroke="rgb(48,192,105)" stroke-width="1" opacity="1" d="M 79.5 82 L 80 84 L 82 84.5 L 79 85 L 79.5 82 Z " /><path fill="rgb(48,192,105)" stroke="rgb(48,192,105)" stroke-width="1" opacity="1" d="M 12.5 83 L 15 83.5 Q 13.3 87.8 11.5 85 L 10 84.5 L 12.5 83 Z " /><path fill="rgb(48,192,105)" stroke="rgb(48,192,105)" stroke-width="1" opacity="1" d="M 85.5 83 L 86 84.5 L 84 85.5 L 85.5 83 Z " /><path fill="rgb(60,186,107)" stroke="rgb(60,186,107)" stroke-width="1" opacity="1" d="M 37.5 4 L 38 14.5 L 36.5 17 L 36 5.5 L 37.5 4 Z " /><path fill="rgb(60,186,107)" stroke="rgb(60,186,107)" stroke-width="1" opacity="1" d="M 54 4 L 56 4.5 L 56 18 L 51.5 19 L 51.5 18 L 54 17.5 L 54 4 Z " /><path fill="rgb(60,186,107)" stroke="rgb(60,186,107)" stroke-width="1" opacity="1" d="M 72 4 L 74 4.5 L 74 18 L 72 17.5 L 72 4 Z " /><path fill="rgb(60,186,107)" stroke="rgb(60,186,107)" stroke-width="1" opacity="1" d="M 8.5 6 Q 14 5 15 8.5 L 12.5 7 Q 7.5 8 8.5 6 Z " /><path fill="rgb(60,186,107)" stroke="rgb(60,186,107)" stroke-width="1" opacity="1" d="M 18.5 6 L 19 16.5 L 18 16.5 L 18.5 6 Z " /><path fill="rgb(60,186,107)" stroke="rgb(60,186,107)" stroke-width="1" opacity="1" d="M 41 6 Q 45.1 4.7 44 8 Q 39.9 9.3 41 6 Z " /><path fill="rgb(60,186,107)" stroke="rgb(60,186,107)" stroke-width="1" opacity="1" d="M 79.5 6 L 84 6.5 L 79.5 7 L 79.5 6 Z " /><path fill="rgb(60,186,107)" stroke="rgb(60,186,107)" stroke-width="1" opacity="1" d="M 6.5 18 L 18 18.5 L 6.5 19 L 6.5 18 Z " /><path fill="rgb(60,186,107)" stroke="rgb(60,186,107)" stroke-width="1" opacity="1" d="M 22.5 18 L 35 18.5 L 22.5 19 L 22.5 18 Z " /><path fill="rgb(60,186,107)" stroke="rgb(60,186,107)" stroke-width="1" opacity="1" d="M 41.5 18 L 48 18.5 L 41.5 19 L 41.5 18 Z " /><path fill="rgb(60,186,107)" stroke="rgb(60,186,107)" stroke-width="1" opacity="1" d="M 57.5 18 L 71 18.5 L 57.5 19 L 57.5 18 Z " /><path fill="rgb(60,186,107)" stroke="rgb(60,186,107)" stroke-width="1" opacity="1" d="M 75.5 18 L 87 18.5 L 75.5 19 L 75.5 18 Z " /><path fill="rgb(60,186,107)" stroke="rgb(60,186,107)" stroke-width="1" opacity="1" d="M 18.5 22 L 19 34.5 L 18 34.5 L 18.5 22 Z " /><path fill="rgb(60,186,107)" stroke="rgb(60,186,107)" stroke-width="1" opacity="1" d="M 72 22 L 74 22.5 L 74 34.5 L 73 39.5 L 74 40.5 L 74 50.5 Q 71.8 51.8 73 56.5 L 74 57.5 L 74 66.5 L 72.5 69 L 72 22 Z " /><path fill="rgb(60,186,107)" stroke="rgb(60,186,107)" stroke-width="1" opacity="1" d="M 25.5 24 L 26 26 L 23 25.5 L 25.5 24 Z " /><path fill="rgb(60,186,107)" stroke="rgb(60,186,107)" stroke-width="1" opacity="1" d="M 28.5 24 L 31 25.5 L 29.5 26 L 28.5 24 Z " /><path fill="rgb(60,186,107)" stroke="rgb(60,186,107)" stroke-width="1" opacity="1" d="M 62.5 34 L 63.5 36 L 62.5 34 Z " /><path fill="rgb(60,186,107)" stroke="rgb(60,186,107)" stroke-width="1" opacity="1" d="M 5.5 36 L 17 36.5 Q 13.4 39.9 4.5 38 L 5.5 36 Z " /><path fill="rgb(60,186,107)" stroke="rgb(60,186,107)" stroke-width="1" opacity="1" d="M 51.5 36 L 55 38.5 L 52.5 37 L 51.5 36 Z " /><path fill="rgb(60,186,107)" stroke="rgb(60,186,107)" stroke-width="1" opacity="1" d="M 78 36 L 86.5 36 L 87 38 L 78.5 38 L 78 36 Z " /><path fill="rgb(60,186,107)" stroke="rgb(60,186,107)" stroke-width="1" opacity="1" d="M 67.5 38 L 59.5 47 L 67.5 38 Z " /><path fill="rgb(60,186,107)" stroke="rgb(60,186,107)" stroke-width="1" opacity="1" d="M 79.5 41 L 80 44 L 77 43.5 L 79 43 L 79.5 41 Z " /><path fill="rgb(60,186,107)" stroke="rgb(60,186,107)" stroke-width="1" opacity="1" d="M 18.5 50 L 19 53.5 L 18 56 L 5.5 56 L 5 54 L 17.5 54 L 18.5 50 Z " /><path fill="rgb(60,186,107)" stroke="rgb(60,186,107)" stroke-width="1" opacity="1" d="M 36.5 52 L 38.5 55 L 36.5 52 Z " /><path fill="rgb(60,186,107)" stroke="rgb(60,186,107)" stroke-width="1" opacity="1" d="M 26.5 53 L 24.5 56 L 26.5 53 Z " /><path fill="rgb(60,186,107)" stroke="rgb(60,186,107)" stroke-width="1" opacity="1" d="M 77.5 54 L 86.5 54 L 87 56 L 75 55.5 L 77.5 54 Z " /><path fill="rgb(60,186,107)" stroke="rgb(60,186,107)" stroke-width="1" opacity="1" d="M 18.5 57 L 19 68.5 L 18 68.5 L 18.5 57 Z " /><path fill="rgb(60,186,107)" stroke="rgb(60,186,107)" stroke-width="1" opacity="1" d="M 7.5 59 L 8 62 L 5 60.5 L 7 60.5 L 7.5 59 Z " /><path fill="rgb(60,186,107)" stroke="rgb(60,186,107)" stroke-width="1" opacity="1" d="M 45.5 60 L 38.5 68 L 45.5 60 Z " /><path fill="rgb(60,186,107)" stroke="rgb(60,186,107)" stroke-width="1" opacity="1" d="M 4.5 72 Q 10.8 70.3 12.5 73 L 15.5 72 L 16.5 74 L 5.5 74 L 4.5 72 Z " /><path fill="rgb(60,186,107)" stroke="rgb(60,186,107)" stroke-width="1" opacity="1" d="M 23 72 L 33.5 72 L 34 74 L 23.5 74 L 23 72 Z " /><path fill="rgb(60,186,107)" stroke="rgb(60,186,107)" stroke-width="1" opacity="1" d="M 37.5 72 L 55 72.5 L 53.5 74 L 40.5 74 L 37.5 73 L 37.5 72 Z " /><path fill="rgb(60,186,107)" stroke="rgb(60,186,107)" stroke-width="1" opacity="1" d="M 56.5 72 L 67.5 72 L 69 73.5 L 57.5 74 L 56.5 72 Z " /><path fill="rgb(60,186,107)" stroke="rgb(60,186,107)" stroke-width="1" opacity="1" d="M 77.5 72 Q 83.8 70.3 85.5 73 L 87 72.5 L 86.5 74 L 75.5 74 L 75.5 73 L 77.5 72 Z " /><path fill="rgb(60,186,107)" stroke="rgb(60,186,107)" stroke-width="1" opacity="1" d="M 54 75 Q 56.7 73.9 56 76.5 L 56 78.5 L 56 86.5 L 54 87 L 54 75 Z " /><path fill="rgb(60,186,107)" stroke="rgb(60,186,107)" stroke-width="1" opacity="1" d="M 18.5 76 L 19 86.5 L 18 86.5 L 18.5 76 Z " /><path fill="rgb(60,186,107)" stroke="rgb(60,186,107)" stroke-width="1" opacity="1" d="M 12.5 78 Q 14.8 77.3 14 79.5 L 12.5 78 Z " /><path fill="rgb(60,186,107)" stroke="rgb(60,186,107)" stroke-width="1" opacity="1" d="M 73.5 78 L 74 86.5 L 72 87.5 L 73 84.5 L 72 80.5 L 73.5 78 Z " /><path fill="rgb(60,186,107)" stroke="rgb(60,186,107)" stroke-width="1" opacity="1" d="M 78 78 L 80 78.5 L 78 79.5 L 78 78 Z " /><path fill="rgb(60,186,107)" stroke="rgb(60,186,107)" stroke-width="1" opacity="1" d="M 6.5 79 L 7 84.5 L 6 84.5 L 6.5 79 Z " /><path fill="rgb(60,186,107)" stroke="rgb(60,186,107)" stroke-width="1" opacity="1" d="M 36.5 80 Q 39.5 81.6 38 87 L 36 86.5 L 36.5 80 Z " /><path fill="rgb(60,186,107)" stroke="rgb(60,186,107)" stroke-width="1" opacity="1" d="M 78.5 84 L 79.5 86 L 78.5 84 Z " /></svg>