<?xml version="1.0" encoding="UTF-8"?>
<!DOCTYPE svg PUBLIC "-//W3C//DTD SVG 1.1//EN" "http://www.w3.org/Graphics/SVG/1.1/DTD/svg11.dtd">
<svg xmlns="http://www.w3.org/2000/svg" version="1.1" width="99px" height="67px" style="shape-rendering:geometricPrecision; text-rendering:geometricPrecision; image-rendering:optimizeQuality; fill-rule:evenodd; clip-rule:evenodd" xmlns:xlink="http://www.w3.org/1999/xlink">
<g><path style="opacity:0.769" fill="#24c95d" d="M 64.5,-0.5 C 66.5,-0.5 68.5,-0.5 70.5,-0.5C 71.5109,1.40239 71.6776,3.40239 71,5.5C 67.1667,9.33333 63.3333,13.1667 59.5,17C 72.6396,15.9558 85.1396,12.4558 97,6.5C 97.3826,7.05596 97.8826,7.38929 98.5,7.5C 98.5,11.5 98.5,15.5 98.5,19.5C 95.8945,28.5297 90.8945,36.0297 83.5,42C 88.0465,44.2949 92.0465,43.4615 95.5,39.5C 96.5178,40.1925 97.5178,40.8592 98.5,41.5C 98.5,42.1667 98.5,42.8333 98.5,43.5C 95.0418,45.8077 91.2085,47.141 87,47.5C 82.9144,46.4589 78.9144,45.1256 75,43.5C 70.8406,45.3088 66.5072,46.6421 62,47.5C 57.4928,46.6421 53.1594,45.3088 49,43.5C 44.8406,45.3088 40.5072,46.6421 36,47.5C 31.4928,46.6421 27.1594,45.3088 23,43.5C 19.0856,45.1256 15.0856,46.4589 11,47.5C 6.79152,47.141 2.95819,45.8077 -0.5,43.5C -0.5,42.8333 -0.5,42.1667 -0.5,41.5C 0.482236,40.8592 1.48224,40.1925 2.5,39.5C 6.22682,43.5653 10.5602,44.3986 15.5,42C 7.81324,36.1093 2.4799,28.6093 -0.5,19.5C -0.5,17.5 -0.5,15.5 -0.5,13.5C 15.0744,16.2392 30.7411,17.7392 46.5,18C 52.7028,11.9648 58.7028,5.79812 64.5,-0.5 Z M 93.5,12.5 C 94.6921,13.5659 94.3588,14.3992 92.5,15C 79.6899,20.537 66.3566,23.537 52.5,24C 53.6226,22.9563 54.9559,22.2896 56.5,22C 69.5514,21.1407 81.8847,17.9741 93.5,12.5 Z M 4.5,18.5 C 16.7754,20.389 29.1087,21.889 41.5,23C 40.0559,24.0637 38.3893,24.5637 36.5,24.5C 27.125,23.6615 17.7916,22.4948 8.5,21C 6.563,20.8784 5.22967,20.045 4.5,18.5 Z M 91.5,19.5 C 92.3764,19.3691 93.0431,19.7025 93.5,20.5C 91.2703,28.2164 86.9369,34.383 80.5,39C 78.4731,39.4978 76.4731,39.3311 74.5,38.5C 70.0105,39.9174 65.6772,41.5841 61.5,43.5C 57.4402,41.7256 53.2735,40.0589 49,38.5C 45.4997,39.3339 42.333,40.8339 39.5,43C 35.8066,43.5506 35.64,43.0506 39,41.5C 40.1525,36.3207 42.9858,32.1541 47.5,29C 62.9435,28.8133 77.6102,25.6467 91.5,19.5 Z M 6.5,24.5 C 16.0348,26.5429 25.7014,28.0429 35.5,29C 34.0506,30.117 32.3839,30.7837 30.5,31C 27.5804,34.4274 24.2471,37.2608 20.5,39.5C 13.758,36.4251 9.09138,31.4251 6.5,24.5 Z M 31.5,35.5 C 33.6348,35.147 34.9681,35.9803 35.5,38C 33.8209,42.9286 31.4875,43.4286 28.5,39.5C 29.5244,38.1482 30.5244,36.8149 31.5,35.5 Z"/></g>
<g><path style="opacity:0.726" fill="#24c95d" d="M 22.5,48.5 C 24.1992,48.3398 25.8659,48.5065 27.5,49C 30.1116,50.8895 32.9449,52.3895 36,53.5C 40.111,51.2787 44.4443,49.6121 49,48.5C 53.5557,49.6121 57.889,51.2787 62,53.5C 65.0551,52.3895 67.8884,50.8895 70.5,49C 72.1341,48.5065 73.8008,48.3398 75.5,48.5C 75.5,49.8333 75.5,51.1667 75.5,52.5C 70.9182,54.0451 66.4182,55.7118 62,57.5C 57.4443,56.3879 53.111,54.7213 49,52.5C 45.012,54.576 40.8454,56.2427 36.5,57.5C 31.8455,55.8572 27.1788,54.1906 22.5,52.5C 22.5,51.1667 22.5,49.8333 22.5,48.5 Z"/></g>
<g><path style="opacity:0.754" fill="#24c95d" d="M 98.5,60.5 C 98.5,61.1667 98.5,61.8333 98.5,62.5C 96.1475,63.3403 94.1475,64.6736 92.5,66.5C 89.1667,66.5 85.8333,66.5 82.5,66.5C 77.1667,61.1667 71.8333,61.1667 66.5,66.5C 63.5,66.5 60.5,66.5 57.5,66.5C 51.8333,61.1667 46.1667,61.1667 40.5,66.5C 37.5,66.5 34.5,66.5 31.5,66.5C 26.1667,61.1667 20.8333,61.1667 15.5,66.5C 12.1667,66.5 8.83333,66.5 5.5,66.5C 3.85254,64.6736 1.85254,63.3403 -0.5,62.5C -0.5,61.8333 -0.5,61.1667 -0.5,60.5C 0.482236,59.8592 1.48224,59.1925 2.5,58.5C 4.63003,60.8984 7.2967,62.2317 10.5,62.5C 14.5377,60.3205 18.8711,58.9872 23.5,58.5C 27.8678,59.5056 32.2011,60.8389 36.5,62.5C 40.4079,60.4684 44.5746,59.1351 49,58.5C 53.4254,59.1351 57.5921,60.4684 61.5,62.5C 65.7989,60.8389 70.1322,59.5056 74.5,58.5C 79.1289,58.9872 83.4623,60.3205 87.5,62.5C 90.7033,62.2317 93.37,60.8984 95.5,58.5C 96.5178,59.1925 97.5178,59.8592 98.5,60.5 Z"/></g>
</svg>
