<?xml version="1.0" encoding="UTF-8"?>
<svg version="1.1" xmlns="http://www.w3.org/2000/svg" width="81" height="81">
<path d="M0 0 C4.89938619 2.54768082 7.267247 5.37534108 10 10 C10.53625 9.0925 11.0725 8.185 11.625 7.25 C13.96041763 3.82417832 16.18613186 1.79899441 20 0 C24.1334199 -0.50461859 27.47586394 -0.08466125 30.91015625 2.359375 C33.85697951 5.39676257 35.363908 7.91261002 35.5 12.1875 C35 16 35 16 33 20 C38.61 20.33 44.22 20.66 50 21 C50 27.27 50 33.54 50 40 C48.02 40.99 48.02 40.99 46 42 C46.01047363 42.97348389 46.02094727 43.94696777 46.03173828 44.94995117 C46.06804206 48.57475075 46.0909381 52.19953436 46.10986328 55.82446289 C46.11989726 57.39089667 46.13352754 58.95731183 46.15087891 60.52368164 C46.17524225 62.78015753 46.18650916 65.03638494 46.1953125 67.29296875 C46.20563507 67.98899704 46.21595764 68.68502533 46.22659302 69.40214539 C46.22750019 73.36749979 45.88296245 76.47905026 44 80 C41.22918143 81.38540928 38.95435649 81.15025628 35.85375977 81.17700195 C34.56224503 81.18983719 33.27073029 81.20267242 31.94007874 81.21589661 C30.52385846 81.22406244 29.10763386 81.23150647 27.69140625 81.23828125 C26.62409932 81.24439454 26.62409932 81.24439454 25.53523064 81.25063133 C21.77113001 81.27148674 18.00706582 81.28579224 14.24291992 81.29516602 C10.35089384 81.30624601 6.45943708 81.34066475 2.56761265 81.38033772 C-0.4220742 81.40644772 -3.41162402 81.41485265 -6.40141487 81.41844749 C-7.83638427 81.42332596 -9.27134706 81.43497578 -10.70620537 81.45348549 C-12.71211932 81.47775892 -14.71830954 81.4745038 -16.72436523 81.4699707 C-17.86638901 81.47583694 -19.00841278 81.48170319 -20.18504333 81.48774719 C-23 81 -23 81 -24.87094116 79.21128845 C-26.63001869 75.76609348 -26.36709215 72.29116953 -26.29296875 68.515625 C-26.28872391 67.70003113 -26.28447906 66.88443726 -26.28010559 66.04412842 C-26.26334715 63.44574616 -26.22570097 60.84814681 -26.1875 58.25 C-26.17244946 56.48568831 -26.1587617 54.72136442 -26.14648438 52.95703125 C-26.11345301 48.63772035 -26.06169086 44.3189928 -26 40 C-27.65 39.67 -29.3 39.34 -31 39 C-31.02684312 36.18743719 -31.04676188 33.37512759 -31.0625 30.5625 C-31.07087891 29.76005859 -31.07925781 28.95761719 -31.08789062 28.13085938 C-31.0965143 26.08704779 -31.0522815 24.04316098 -31 22 C-30 21 -30 21 -26.18359375 20.90234375 C-24.60153318 20.90901911 -23.01948841 20.92098125 -21.4375 20.9375 C-20.63119141 20.94201172 -19.82488281 20.94652344 -18.99414062 20.95117188 C-16.99606244 20.96299482 -14.99802217 20.98093086 -13 21 C-13.32355469 20.43152344 -13.64710937 19.86304687 -13.98046875 19.27734375 C-15.6421311 15.56566117 -15.44984834 11.99151147 -15 8 C-13.59471779 4.40872325 -12.43148426 3.27806764 -9.1875 1.1875 C-5.71472323 -0.10627958 -3.66458779 -0.53441905 0 0 Z M-8.875 5.625 C-11.26740101 8.29885995 -12 9.42501271 -12 13 C-10.44943605 17.16814975 -10.44943605 17.16814975 -7.30859375 20.16796875 C-4.20970361 21.28482763 -1.53425543 21.19068511 1.75 21.125 C2.92046875 21.10695313 4.0909375 21.08890625 5.296875 21.0703125 C6.63492188 21.03550781 6.63492188 21.03550781 8 21 C7.11329322 14.30337861 6.22608555 9.52927414 1 5 C-3.21451341 3.64533498 -4.99579839 3.43240779 -8.875 5.625 Z M15 9 C12.95039465 13.1402028 12 16.34456266 12 21 C14.06183633 21.08150744 16.12461349 21.1394194 18.1875 21.1875 C19.91033203 21.23970703 19.91033203 21.23970703 21.66796875 21.29296875 C25.3044035 20.97323533 27.1105914 20.18158273 30 18 C31.56935594 14.86128812 31.35201103 12.46144178 31 9 C28.55401113 5.61878009 27.10703441 4.23063217 23 3.375 C18.87933091 4.23347273 17.5598577 5.67910353 15 9 Z M-27 25 C-27 28.63 -27 32.26 -27 36 C-25.50146484 36.07347656 -25.50146484 36.07347656 -23.97265625 36.1484375 C-22.03712891 36.26058594 -22.03712891 36.26058594 -20.0625 36.375 C-18.77472656 36.44460937 -17.48695312 36.51421875 -16.16015625 36.5859375 C-14.59587891 36.79089844 -14.59587891 36.79089844 -13 37 C-12.67 37.66 -12.34 38.32 -12 39 C-15.3 39.33 -18.6 39.66 -22 40 C-22.04936158 45.09031755 -22.08570105 50.18049643 -22.10986328 55.27099609 C-22.11993376 57.00344265 -22.13359089 58.73587216 -22.15087891 60.46826172 C-22.17508162 62.95544639 -22.18647239 65.44240675 -22.1953125 67.9296875 C-22.20563507 68.70682098 -22.21595764 69.48395447 -22.22659302 70.28463745 C-22.22699271 72.19125493 -22.1223214 74.09731036 -22 76 C-19.32806098 78.67193902 -18.02973245 78.25316128 -14.296875 78.25878906 C-13.10223633 78.26509338 -11.90759766 78.27139771 -10.67675781 78.27789307 C-9.38092773 78.2738446 -8.08509766 78.26979614 -6.75 78.265625 C-5.41243418 78.26697178 -4.07486883 78.26891243 -2.73730469 78.27142334 C0.06710466 78.274374 2.87138669 78.27007894 5.67578125 78.26074219 C9.27404922 78.24934754 12.87201886 78.25590734 16.47027588 78.26788712 C19.23260758 78.27510736 21.99486833 78.27281706 24.75720215 78.26763153 C26.73038933 78.26564475 28.70357926 78.27172842 30.67675781 78.27789307 C31.87139648 78.27158875 33.06603516 78.26528442 34.296875 78.25878906 C35.35229492 78.25719788 36.40771484 78.25560669 37.49511719 78.25396729 C40.1722834 78.24916529 40.1722834 78.24916529 42 76 C42.17517747 73.27514272 42.23149133 70.65340638 42.1953125 67.9296875 C42.19106766 66.73534592 42.19106766 66.73534592 42.18673706 65.51687622 C42.1755264 62.96943237 42.15042062 60.42233789 42.125 57.875 C42.11497133 56.14974465 42.10584528 54.42448381 42.09765625 52.69921875 C42.07558422 48.46601086 42.04104867 44.2330647 42 40 C41.28972656 39.95101562 40.57945313 39.90203125 39.84765625 39.8515625 C38.92855469 39.77679688 38.00945312 39.70203125 37.0625 39.625 C36.14597656 39.55539063 35.22945312 39.48578125 34.28515625 39.4140625 C33.53105469 39.27742188 32.77695312 39.14078125 32 39 C31.505 38.01 31.505 38.01 31 37 C38.92 36.505 38.92 36.505 47 36 C47 32.37 47 28.74 47 25 C22.58 25 -1.84 25 -27 25 Z " fill="#24C95E" transform="translate(31,0)"/>
<path d="M0 0 C1.32 0 2.64 0 4 0 C4.67154933 1.28913487 5.33708859 2.58140204 6 3.875 C6.37125 4.59429687 6.7425 5.31359375 7.125 6.0546875 C8 8 8 8 8 10 C13.445 10.495 13.445 10.495 19 11 C19.495 12.98 19.495 12.98 20 15 C18.53125 16.5 18.53125 16.5 16.5 18 C13.79327066 20.44945605 13.04571077 21.42027141 12.75390625 25.12109375 C13.03325443 28.12320268 13.42192897 31.04163647 14 34 C8.42666667 33.24 8.42666667 33.24 6 31.875 C3.06503232 30.59095164 1.0554952 31.2361262 -2 32 C-2.70125 32.350625 -3.4025 32.70125 -4.125 33.0625 C-6 34 -6 34 -10 34 C-9.76990234 32.82244141 -9.76990234 32.82244141 -9.53515625 31.62109375 C-8.40235734 25.4142066 -8.40235734 25.4142066 -10.52734375 19.78515625 C-12.45534582 17.9810238 -12.45534582 17.9810238 -14.53125 16.5 C-15.0159375 16.005 -15.500625 15.51 -16 15 C-15.67 13.68 -15.34 12.36 -15 11 C-9.555 10.505 -9.555 10.505 -4 10 C-3.71125 9.0925 -3.4225 8.185 -3.125 7.25 C-2.23468224 4.67797092 -1.28505587 2.38653234 0 0 Z M1 6 C0.34 8.31 -0.32 10.62 -1 13 C-5.455 13.495 -5.455 13.495 -10 14 C-10 14.66 -10 15.32 -10 16 C-9.175 16.53625 -8.35 17.0725 -7.5 17.625 C-5 20 -5 20 -4.66796875 22.0390625 C-4.68554809 24.02904406 -4.83473458 26.01681494 -5 28 C-3.80375 27.608125 -2.6075 27.21625 -1.375 26.8125 C2.15952231 25.90056809 2.89323585 25.95805694 6.5 27.375 C7.325 27.91125 8.15 28.4475 9 29 C8.95359375 28.39671875 8.9071875 27.7934375 8.859375 27.171875 C8.55971718 20.53659469 8.55971718 20.53659469 11 17.5625 C11.66 17.046875 12.32 16.53125 13 16 C13 15.34 13 14.68 13 14 C10.36 13.67 7.72 13.34 5 13 C4.71125 12.030625 4.4225 11.06125 4.125 10.0625 C3.35785318 6.89335797 3.35785318 6.89335797 1 6 Z " fill="#24C95E" transform="translate(39,33)"/>
</svg>
