<svg width="81" height="81" version="1.1" xmlns="http://www.w3.org/2000/svg" desc="Created with imagetracer.js version 1.2.6" ><path fill="rgb(0,0,0)" stroke="rgb(0,0,0)" stroke-width="1" opacity="0" d="M 0 0 L 25 0.5 L 18 4.5 Q 14.7 8.2 16 16.5 L 18 21 L 1.5 21 L 0.5 22 L 0 0 Z " /><path fill="rgb(0,0,0)" stroke="rgb(0,0,0)" stroke-width="1" opacity="0" d="M 31.5 0 L 51 0.5 L 43 6.5 L 40.5 11 L 34.5 2 Q 30.7 1.7 31.5 0 Z " /><path fill="rgb(0,0,0)" stroke="rgb(0,0,0)" stroke-width="1" opacity="0" d="M 57.5 0 L 81 0 L 81 21 L 63 20.5 Q 67.3 17.3 66 8.5 L 59.5 1 Q 56.5 1.5 57.5 0 Z " /><path fill="rgb(0,0,0)" stroke="rgb(0,0,0)" stroke-width="1" opacity="0" d="M 25.5 4 Q 33.6 3.9 36 9.5 L 39 21 L 26.5 21 L 21 17.5 L 19 12.5 L 20 8.5 L 23.5 5 L 25.5 4 Z " /><path fill="rgb(0,0,0)" stroke="rgb(0,0,0)" stroke-width="1" opacity="0" d="M 51.5 4 Q 59.1 2.9 61 7.5 L 62 15.5 L 59.5 19 L 55.5 21 L 43 21 Q 43.2 11.3 48 6 L 51.5 4 Z " /><path fill="rgb(0,0,0)" stroke="rgb(0,0,0)" stroke-width="1" opacity="0" d="M 4 25 L 77.5 25 L 78 25.5 L 78 36 L 64.5 36 L 62 37 L 63.5 40 L 72.5 40 L 73 40.5 L 73 75.5 L 70.5 78 L 11.5 78 L 9 75.5 L 9 40 L 18.5 40 L 20 38.5 L 17.5 36 L 4 36 L 4 25 Z M 39 33 L 35 43 L 25 44 L 23 46 L 23 48 L 31 56 Q 28 60 29 67 L 33 67 L 40 63 L 43 63 L 50 67 L 53 67 L 51 57 L 59 48 L 59 46 L 58 44 L 47 43 L 43 35 L 43 33 L 39 33 Z " /><path fill="rgb(0,0,0)" stroke="rgb(0,0,0)" stroke-width="1" opacity="0" d="M 0.5 39 L 5 40 L 5 76.5 L 8 80.5 L 0 81 L 0.5 39 Z " /><path fill="rgb(0,0,0)" stroke="rgb(0,0,0)" stroke-width="1" opacity="0" d="M 40.5 39 L 44 46 L 52 47 L 47 53.5 L 47 56.5 L 48 61.5 L 45.5 60 L 40.5 58 L 34 61 L 35 53.5 L 29 49 Q 27.9 45.5 35.5 47 L 38 46 L 40.5 39 Z " /><path fill="rgb(0,0,0)" stroke="rgb(0,0,0)" stroke-width="1" opacity="0" d="M 77.5 40 L 81 40.5 L 81 81 L 73 80.5 L 75 80 L 77 74.5 L 77 42.5 Q 74.8 41.3 77.5 40 Z " /><path fill="rgb(36,201,94)" stroke="rgb(36,201,94)" stroke-width="1" opacity="1" d="M 25.5 0 L 30.5 0 L 38 5.5 L 40.5 11 L 47.5 2 Q 50.2 -0.8 56.5 0 Q 62.6 1.4 65 6.5 L 66 15.5 L 63 20.5 L 81 21 L 81 39.5 L 77.5 40 Q 74.8 41.3 77 42.5 L 77 74.5 L 75 80 L 72.5 81 L 8.5 81 L 5 76.5 L 5 40 Q 1.2 41 0 38.5 L 0 22.5 L 1.5 21 L 17.5 21 L 18 19.5 Q 14.4 16.6 16 8.5 L 19.5 3 L 25.5 0 Z M 26 4 L 24 5 L 20 9 L 19 13 L 21 18 L 27 21 L 39 21 L 36 10 Q 34 4 26 4 Z M 52 4 L 48 6 Q 43 11 43 21 L 56 21 L 60 19 L 62 16 L 61 8 Q 59 3 52 4 Z M 4 25 L 4 36 L 18 36 L 20 39 L 19 40 L 9 40 L 9 76 L 12 78 L 71 78 L 73 76 L 73 41 L 73 40 L 64 40 L 62 37 L 65 36 L 78 36 L 78 26 L 78 25 L 4 25 Z " /><path fill="rgb(36,201,94)" stroke="rgb(36,201,94)" stroke-width="1" opacity="1" d="M 39 33 L 43 33 L 43 34.5 L 47 43 L 57.5 44 L 59 45.5 L 59 47.5 L 51 56.5 L 53 67 L 49.5 67 L 42.5 63 L 39.5 63 L 32.5 67 L 29 67 Q 28.3 60.1 31 55.5 L 23 47.5 L 23 45.5 L 24.5 44 L 35 43 L 39 33 Z M 41 39 L 38 46 L 36 47 Q 28 45 29 49 L 35 54 L 34 61 L 41 58 L 46 60 L 48 62 L 47 57 L 47 54 L 52 47 L 44 46 L 41 39 Z " /></svg>