<?xml version="1.0" encoding="UTF-8"?>
<!DOCTYPE svg PUBLIC "-//W3C//DTD SVG 1.1//EN" "http://www.w3.org/Graphics/SVG/1.1/DTD/svg11.dtd">
<!-- Creator: CorelDRAW 2021.5 -->
<svg xmlns="http://www.w3.org/2000/svg" xml:space="preserve" width="22.92mm" height="22.92mm" version="1.1" style="shape-rendering:geometricPrecision; text-rendering:geometricPrecision; image-rendering:optimizeQuality; fill-rule:evenodd; clip-rule:evenodd"
viewBox="0 0 2292 2292"
 xmlns:xlink="http://www.w3.org/1999/xlink"
 xmlns:xodm="http://www.corel.com/coreldraw/odm/2003">
 <defs>
  <style type="text/css">
   <![CDATA[
    .fil0 {fill:#24C95E}
   ]]>
  </style>
 </defs>
 <g id="Слой_x0020_1">
  <metadata id="CorelCorpID_0Corel-Layer"/>
  <g id="_1877041259744">
   <path class="fil0" d="M734.52 914.83c0,32.83 22.16,72.6 35.83,103.36 13.85,31.1 30.88,58.33 46.34,88.86l132.06 198.1c10.74,13.47 20.04,23.28 31.17,36.43 35.18,41.63 91.34,104.16 133.03,137.42 12.95,10.36 21.61,20.49 35.69,31.94 44.84,36.37 68.09,19.95 112.6,-13.72l118.27 -84.57c45.13,-29.22 110.9,-13.76 140.21,29.5l63.09 88.07c8.27,11.09 14.23,18.4 21.96,29.72 28.03,41.02 32.62,40.06 32.62,90.7 0,23.7 -11.1,42.84 -22.61,56.92 -19.27,23.57 -63.18,49.23 -89.89,69.24 -71.45,53.53 -123.22,98.75 -221.06,88.13 -24.66,-2.69 -41.72,-12.09 -61.54,-22.03 -96.41,-48.36 -156.15,-95.47 -240.14,-157.59 -94.13,-69.63 -202.97,-190.37 -275.04,-285.81 -90.75,-120.23 -172.92,-283.56 -219.87,-424.48 -20.71,-62.12 -59.1,-203.42 -59.1,-267.05 0,-103.26 78.18,-150.56 151.11,-198.86 48.2,-31.94 89.48,-71.58 143.23,-71.58 61.67,0 91.3,62.95 118.72,100.02 16.29,22.07 30.69,41.57 46.73,64.62 35.11,50.52 50.92,102.82 0.77,152.72 -17.74,17.64 -42.79,32.78 -63.44,47.95 -22.06,16.19 -41.91,30.53 -64.14,47.2 -22.03,16.52 -46.6,27.94 -46.6,64.79zm600.58 1081.84c128.79,0 200.18,-71.32 299.05,-138.47 10.42,-7.06 17.93,-11.55 28.73,-18.99 21.27,-14.69 36.4,-27.04 51.83,-47.59 30.72,-40.89 53.94,-89.67 53.94,-144.96 0,-86.14 -40.15,-133.92 -77.26,-185.27 -28.95,-40.02 -79.3,-118.49 -119.94,-146.56 -93.93,-64.87 -197.03,-59.17 -292.6,13.09l-78.99 56.22c-67.48,-58.66 -125.59,-128.06 -180.68,-201.15 -35.25,-46.72 -129.95,-194.85 -141.5,-244.3 11.71,-7.83 20.88,-14.6 32.39,-23.32 28.93,-21.87 70.53,-47.66 93.97,-73.09 73.86,-80.08 86.3,-198.35 24.12,-292.7 -30.09,-45.67 -117.7,-168.17 -152.02,-194.02 -65.13,-49.04 -150.34,-58.63 -227.53,-27.81 -27.23,10.91 -37.78,20.69 -59.65,35.82 -117.73,81.49 -253.29,155.8 -267.79,316.89 -8.69,96.72 29.03,233.18 58.85,322.37 61.48,183.85 149.54,357.83 270.42,509.14 82.51,103.3 114.68,133.86 212.3,225.19 67.35,63.05 174.75,135.11 254.35,183.19 67.18,40.57 130.71,76.32 218.01,76.32z"/>
   <path class="fil0" d="M1335.1 361.94c0,60.61 20.94,60.26 86.17,92.81 104.84,52.34 193.38,129.08 263.33,221.96l61.57 97.52c89.09,175.68 78.09,283.6 92.68,313 21.01,42.27 93.04,52.69 117.96,-4.2 17.35,-39.64 -21.94,-186.93 -33.52,-223.43 -14.97,-47.14 -31.23,-83.73 -52.56,-126.42 -10.65,-21.29 -19.11,-38.61 -30.27,-57.24 -31.56,-52.7 -73.32,-110.77 -116.58,-153.91 -73.66,-73.44 -106.66,-103.39 -199.12,-158.84 -21.87,-13.12 -99.61,-56.92 -126,-56.92 -28.64,0 -63.66,26.81 -63.66,55.67z"/>
   <path class="fil0" d="M1227.73 656.28c0,84.82 112.92,44.73 223.91,193.7 40.7,54.68 64.97,110.06 75.62,182.89 6.67,45.42 -2.28,100.7 74.34,100.7 28.83,0 55.67,-27.58 55.67,-71.61 0,-161.28 -95.98,-308.67 -222.08,-402.35 -25.47,-18.89 -109.04,-66.96 -147.81,-66.96 -28.61,0 -59.65,30.72 -59.65,63.63z"/>
  </g>
 </g>
</svg>
