<?xml version="1.0" encoding="UTF-8"?>
<!DOCTYPE svg PUBLIC "-//W3C//DTD SVG 1.1//EN" "http://www.w3.org/Graphics/SVG/1.1/DTD/svg11.dtd">
<svg xmlns="http://www.w3.org/2000/svg" version="1.1" width="93px" height="75px" style="shape-rendering:geometricPrecision; text-rendering:geometricPrecision; image-rendering:optimizeQuality; fill-rule:evenodd; clip-rule:evenodd" xmlns:xlink="http://www.w3.org/1999/xlink">
<g><path style="opacity:1" fill="#24c95d" d="M 6.5,-0.5 C 7.16667,-0.5 7.83333,-0.5 8.5,-0.5C 8.33356,8.50617 8.50023,17.5062 9,26.5C 15.9024,30.3265 17.2357,35.6598 13,42.5C 11.8455,43.7433 10.5122,44.7433 9,45.5C 8.33333,50.8333 8.33333,56.1667 9,61.5C 11.4018,65.4524 13.9018,65.4524 16.5,61.5C 15.8333,60.8333 15.1667,60.1667 14.5,59.5C 15.4803,58.0186 16.647,56.6853 18,55.5C 21.0977,61.4412 19.431,65.4412 13,67.5C 11.2367,67.0245 9.57004,66.3578 8,65.5C 6.74457,58.9406 6.07791,52.274 6,45.5C 2.62629,43.7208 0.459625,41.0542 -0.5,37.5C -0.5,35.8333 -0.5,34.1667 -0.5,32.5C 0.815307,29.6884 2.98197,27.6884 6,26.5C 6.49977,17.5062 6.66644,8.50617 6.5,-0.5 Z M 5.5,29.5 C 10.0168,29.0197 12.3502,31.0197 12.5,35.5C 9.16667,35.5 5.83333,35.5 2.5,35.5C 2.46095,32.911 3.46095,30.911 5.5,29.5 Z M 3.5,38.5 C 6.24688,38.1866 8.91355,38.52 11.5,39.5C 8.21054,43.6747 5.54388,43.3414 3.5,38.5 Z"/></g>
<g><path style="opacity:1" fill="#24c95d" d="M 39.5,0.5 C 46.4334,0.696117 48.6001,4.02945 46,10.5C 40.6353,14.7451 36.802,13.5784 34.5,7C 34.3875,5.3376 35.0542,4.17094 36.5,3.5C 37.0722,5.91712 38.0722,8.08379 39.5,10C 43.4874,10.339 44.9874,8.50565 44,4.5C 41.8816,3.71712 40.3816,2.38379 39.5,0.5 Z"/></g>
<g><path style="opacity:1" fill="#24c95d" d="M 23.5,13.5 C 28.5494,14.1939 30.2161,16.8606 28.5,21.5C 24.2143,24.6748 21.2143,23.6748 19.5,18.5C 20.1598,16.1853 21.4931,14.5186 23.5,13.5 Z M 23.5,16.5 C 25.9118,16.6941 26.9118,18.0274 26.5,20.5C 23.0464,20.7332 22.0464,19.3999 23.5,16.5 Z"/></g>
<g><path style="opacity:1" fill="#24c95d" d="M 92.5,30.5 C 92.5,31.1667 92.5,31.8333 92.5,32.5C 84.5,41.5 84.5,50.5 92.5,59.5C 92.5,60.1667 92.5,60.8333 92.5,61.5C 86.3957,61.4598 81.0624,59.1265 76.5,54.5C 71.1806,59.9907 64.8472,63.6573 57.5,65.5C 57.9629,68.4824 58.2962,71.4824 58.5,74.5C 56.1667,74.5 53.8333,74.5 51.5,74.5C 47.5252,73.0476 44.1919,70.5476 41.5,67C 29.4859,64.3146 21.1526,57.3146 16.5,46C 20.6705,35.8285 28.0038,29.1618 38.5,26C 46.0526,19.2454 54.5526,17.0787 64,19.5C 66.1841,22.8662 67.5175,26.5328 68,30.5C 70.9254,32.7139 73.7587,35.0472 76.5,37.5C 80.4343,33.5687 85.101,30.902 90.5,29.5C 91.1835,29.8627 91.8501,30.1961 92.5,30.5 Z M 56.5,20.5 C 61.9252,20.3203 64.4252,22.987 64,28.5C 62.5589,27.7402 61.0589,27.0736 59.5,26.5C 58.6143,27.325 58.281,28.325 58.5,29.5C 65.4287,31.9742 71.4287,35.9742 76.5,41.5C 79.5736,38.2579 83.0736,35.5913 87,33.5C 85.4763,37.4343 84.3096,41.601 83.5,46C 84.3096,50.399 85.4763,54.5657 87,58.5C 83.0736,56.4087 79.5736,53.7421 76.5,50.5C 67.1867,61.1586 55.52,65.6586 41.5,64C 38.9682,63.3811 36.6349,62.3811 34.5,61C 36.2446,59.308 36.5779,57.4747 35.5,55.5C 33.8539,56.7786 32.6872,58.4453 32,60.5C 26.3825,56.885 22.2159,52.0517 19.5,46C 22.2159,39.9483 26.3825,35.115 32,31.5C 32.6667,32.8333 33.3333,34.1667 34,35.5C 34.8882,41.1561 35.7215,46.8227 36.5,52.5C 39.1511,45.0142 38.4844,37.6809 34.5,30.5C 36.6565,29.2096 38.9899,28.3763 41.5,28C 46.2018,27.8283 50.8685,27.3283 55.5,26.5C 52.4417,24.8593 49.1083,24.0259 45.5,24C 49.1613,22.4075 52.828,21.2408 56.5,20.5 Z M 52.5,66.5 C 55.3058,67.707 55.9725,69.707 54.5,72.5C 51.2211,71.5272 48.2211,70.0272 45.5,68C 48.0356,67.8138 50.369,67.3138 52.5,66.5 Z"/></g>
<g><path style="opacity:1" fill="#24c95d" d="M 26.5,43.5 C 30.1612,43.3501 31.1612,44.8501 29.5,48C 25.7071,48.4866 24.7071,46.9866 26.5,43.5 Z"/></g>
</svg>
