<?xml version="1.0" encoding="UTF-8"?>
<!DOCTYPE svg PUBLIC "-//W3C//DTD SVG 1.1//EN" "http://www.w3.org/Graphics/SVG/1.1/DTD/svg11.dtd">
<!-- Creator: CorelDRAW 2021.5 -->
<svg xmlns="http://www.w3.org/2000/svg" xml:space="preserve" width="22.92mm" height="22.92mm" version="1.1" style="shape-rendering:geometricPrecision; text-rendering:geometricPrecision; image-rendering:optimizeQuality; fill-rule:evenodd; clip-rule:evenodd"
viewBox="0 0 2292 2292"
 xmlns:xlink="http://www.w3.org/1999/xlink"
 xmlns:xodm="http://www.corel.com/coreldraw/odm/2003">
 <defs>
  <style type="text/css">
   <![CDATA[
    .fil0 {fill:#24C95E}
   ]]>
  </style>
 </defs>
 <g id="Слой_x0020_1">
  <metadata id="CorelCorpID_0Corel-Layer"/>
  <g id="_1876724653168">
   <path class="fil0" d="M1122.62 1888.18c31.31,0 42.81,4.48 71.64,4.48 55.1,0 138.01,-13.43 156.7,-13.43 9.87,42.36 16.99,87.47 26.86,129.84 -47.62,0 -111.29,-25.48 -146.33,-41.72 -27.54,-12.76 -94.74,-58.06 -108.87,-79.17zm-8.95 -1047.66c16.29,-22.24 121.48,-59.26 158.54,-69.8 83.64,-23.79 143.28,-28.7 235.45,-28.7 22.98,0 71.23,110.67 81.19,138.19 5.7,15.72 10.74,45.11 17.31,58.81 -18.76,-4.37 -42.48,-19.44 -61.13,-28.42 -28.9,-13.91 -100.05,-51.06 -100.05,10.51 0,31.73 28.42,35.54 49.94,44.08 106.81,42.34 211.13,120.73 291.45,201.04l47.08 51.42c10.21,11.47 12.88,14.43 22.6,26.65 40.59,51.01 75.73,-17.7 80.71,-23.94 5.57,-6.99 9.09,-9.54 14.77,-16.56 18.79,-23.25 35.78,-41.9 60.1,-60.79 45.77,-35.55 95.1,-72.78 158.65,-87.59 -23.8,35.55 -50.04,91.9 -65.28,131.71 -55.95,146.2 -38.83,282.43 29.47,418.99 11.86,23.71 23.94,44.71 35.81,67.16 -24.66,-5.75 -61.34,-24.23 -80.85,-35.56 -51.28,-29.75 -95.85,-61.8 -133.42,-108.34 -56.09,-69.48 -63.5,-98.78 -139.42,0.63 -26.77,35.04 -95.01,93.74 -130.46,120.26 -62.55,46.81 -87.03,62.39 -157.52,97.68 -174.56,87.39 -408.07,94.63 -593.48,32.23l-76.66 -26.31c4.03,-17.33 19.27,-43.55 26.87,-62.68 5.4,-13.61 49.82,-102.98 -8.97,-102.98 -34.09,0 -36.93,29.74 -47.31,55.66 -11.54,28.78 -20.12,49.31 -33.27,74.18 -46.45,-24.58 -82.16,-52.54 -119.84,-86.11 -60.7,-54.07 -83.37,-80.45 -134.48,-156.54 -80.21,-119.42 -66.03,-112.06 -2.34,-219.95 6.1,-10.34 9.22,-15 16.14,-24.17 61.93,-82.09 99.41,-128.63 189.43,-191.12 14.13,-9.81 37.47,-28 55.56,-29.51l27.55 70.96c48.85,131.95 58.33,257.23 42.49,398.09 -2.4,21.32 2.4,45.83 32.94,45.83 48.06,0 44.77,-93.06 44.77,-143.27 0,-122.81 -18.65,-260.44 -71.57,-367.2 -6.67,-13.46 -14.21,-24.08 -17.97,-40.23 25.41,-5.92 76,-30.54 145.96,-46.56 86.41,-19.78 219.66,-29.15 312.78,-13.65 15.35,2.56 28.73,6.84 40.25,4.11 28.16,-6.67 24.84,-26.25 24.84,-42.39 0,-27.22 -46.56,-29.3 -74.07,-33.38 -105.26,-15.63 -118.98,-2.44 -194.56,-2.44zm-702.92 519.35c0,54.4 92.45,189.4 135.63,240.45 9.88,11.68 16.27,16.04 25.54,28.18 43.66,57.17 183.25,155.16 251.35,182.95 50.05,20.43 102.15,42.95 160.17,54.73 17.04,3.46 27.39,2.88 38.87,14.86 7.68,8.02 16.68,21.7 23.52,30.2 77.63,96.5 243.5,173.94 376.76,173.94 51.11,0 29.05,-62.98 22.02,-98.13 -4.78,-23.84 -18.91,-109.92 -26.49,-125.73 53.53,-4.46 154.06,-56.92 203.01,-83.53 73.17,-39.77 109.97,-76.41 167.94,-123.08 26.49,-21.33 76.22,-70.29 94.67,-97.84 19.9,13.32 23.05,24.75 39.09,41.51 105.8,110.57 363.86,221.41 363.86,133.1 0,-21.78 -24.46,-44.9 -46.62,-78.74 -44,-67.21 -96.65,-179.35 -96.65,-266 0,-117.24 18.68,-174.32 73.02,-271.73 20.98,-37.62 70.25,-99.35 70.25,-117.79 0,-56.91 -75.62,-27.22 -108.41,-18.87 -43.67,11.11 -80.4,27.43 -115.51,45.67 -36.46,18.96 -64.4,39.81 -95.34,65.84l-83.69 81.97c-29.47,-44.01 -121.72,-125.92 -164.95,-157.4 -43.27,-31.51 -29.29,-8.98 -40.55,-66.9 -13.24,-68.06 -27.51,-107.39 -54.17,-160.74 -13.57,-27.14 -22.73,-43.14 -39.34,-68.11 -36.01,-54.15 -41.85,-48.3 -94.98,-48.3 -178.59,0 -355.54,53.94 -495.14,163.01 -37.34,29.18 -18.96,28.38 -68.4,43.53 -141.34,43.34 -242.1,109.93 -344.25,210.92 -49.8,49.24 -171.21,221.02 -171.21,272.03z"/>
   <path class="fil0" d="M79.43 1167.35c35.81,17.19 184.42,16.78 219.39,0 -3.56,42.77 -61.41,111.93 -107.46,111.93 -52.53,0 -105.93,-65.15 -111.93,-111.93zm-85.06 -53.01l0 -39.92c3.47,-44.82 19.09,-88.5 50.46,-125.24 20.21,-23.66 71.28,-51.65 110.72,-54.94 0,-24.68 -5.3,-641.97 3.54,-659.07 12.74,-24.63 51.68,-22.71 61.48,3.06 6.06,15.92 2.13,633.19 2.13,656.01 24.54,2.05 50.01,12.59 67.05,22.5 73.48,42.73 94.13,101.74 94.13,187.93 0,96.03 -82.26,235.54 -161.18,237.29l0 367.13c0,152.48 192.52,142.74 192.52,8.96 -35.42,18.74 -58.2,7.23 -58.2,-35.82 0,-14.95 75.2,-76.11 85.07,-76.11 51.84,0 44.77,36.25 44.77,89.54 0,223.22 -217.53,227.46 -287.34,144.07 -55.51,-66.31 -43.97,-110.38 -43.97,-224.66 0,-89.54 0,-179.09 0,-268.63 -49.12,-23.56 -73.42,-31.04 -112.01,-89.47 -27.17,-41.13 -45.32,-91.51 -49.17,-142.63zm188.04 -152.94c88.2,0 127.27,45.22 134.31,129.84 -49.15,23.59 -204.26,24.44 -255.2,0 0.83,-36.97 13.75,-72.12 32.51,-92.85 16.51,-18.24 54.17,-36.99 88.38,-36.99z"/>
   <path class="fil0" d="M979.35 262.96c0,55.28 43.25,30.56 80.65,53.67 59.67,36.87 55.45,117.53 7.13,150.52 -22.79,15.57 -50.85,21.98 -81.15,13.25 -28.87,-8.32 -45.93,-26.48 -55.98,-51.69 -19.39,-48.63 4.58,-63.87 4.58,-89.64 0,-31.81 -80.59,-77.59 -80.59,71.64 0,66.15 71.62,143.27 152.22,143.27 94.78,0 165.66,-68.66 165.66,-147.75l0 -31.34c0,-63.47 -75.32,-138.79 -138.79,-138.79 -12.14,0 -53.73,-4.69 -53.73,26.86z"/>
   <path class="fil0" d="M562.97 692.77c0,-71.75 98.5,-66.21 98.5,0 0,58.63 -98.5,64.81 -98.5,0zm-71.63 -4.48c0,110.61 131.3,160.3 206.25,85.37 67.35,-67.34 34.63,-201.77 -94.32,-201.77 -61.7,0 -111.93,61.55 -111.93,116.4z"/>
   <path class="fil0" d="M688.33 1422.55c99.02,0 74.22,-116.4 17.91,-116.4 -106.38,0 -72.71,116.4 -17.91,116.4z"/>
  </g>
 </g>
</svg>
