<?xml version="1.0" encoding="UTF-8"?>
<!DOCTYPE svg PUBLIC "-//W3C//DTD SVG 1.1//EN" "http://www.w3.org/Graphics/SVG/1.1/DTD/svg11.dtd">
<!-- Creator: CorelDRAW 2021.5 -->
<svg xmlns="http://www.w3.org/2000/svg" xml:space="preserve" width="22.92mm" height="22.92mm" version="1.1" style="shape-rendering:geometricPrecision; text-rendering:geometricPrecision; image-rendering:optimizeQuality; fill-rule:evenodd; clip-rule:evenodd"
viewBox="0 0 2292 2292"
 xmlns:xlink="http://www.w3.org/1999/xlink"
 xmlns:xodm="http://www.corel.com/coreldraw/odm/2003">
 <defs>
  <style type="text/css">
   <![CDATA[
    .fil0 {fill:#24C95E}
   ]]>
  </style>
 </defs>
 <g id="Слой_x0020_1">
  <metadata id="CorelCorpID_0Corel-Layer"/>
  <g id="_1876727728800">
   <path class="fil0" d="M1185.31 1836.48c13.9,10.18 36.06,47.39 108.94,83.58 92.89,46.14 187.89,56.12 287.95,22.29 14.07,-4.75 20.16,-8.88 32.92,-11.85l0 277.59 -429.81 0 0 -371.61zm1101.39 -308.19l0 48.4c-3.07,52.74 -16.26,104.82 -40.28,152.36 -23.55,46.6 -43.84,77.39 -81.67,115.31 -111.3,111.56 -315.86,155.61 -455.61,81.66l0 282.07 537.26 0c24.89,0 38.31,18.95 40.3,39.42l0 10.7c-1.99,20.47 -15.41,39.42 -40.29,39.42l-2211.74 0c-24.88,0 -38.31,-18.95 -40.3,-39.42l0 -10.7c1.99,-20.47 15.42,-39.42 40.3,-39.42l510.4 0 0 -286.54c-160.96,0 -353.05,-114.93 -439.72,-245.29 -19.02,-28.62 -75.16,-113.67 -75.16,-153.18 0,-30.88 37.23,-52.71 65.16,-38.64 43.02,21.66 63.55,213.77 312.77,314.38 14.47,5.84 31.09,10.92 43.81,14.39 31.77,8.66 61.46,11.41 93.14,18.79 0,-52.88 6.74,-328.76 -1.08,-357.09 -8.25,-29.87 -164.58,-144.87 -164.58,-189.13 0,-25.48 39.96,-71.32 84.05,-25.84l81.61 79.57c0,-33.93 -5.73,-148.01 8.49,-166.12 9.51,-12.1 82.01,-53.33 81.12,49.65l-0.07 308.99c47.5,-31.81 134.97,-152.22 170.14,-152.22 30.59,0 49.25,21.99 49.25,49.24 0,24.74 -53.89,69.56 -70.52,86.19l-118.65 118.65c-26.34,26.26 -29.23,20.98 -30.56,45.55 -2.54,47.09 0.34,104.28 0.34,152.56 30.78,-7.17 63.89,-9.07 93.56,-18.37 77.9,-24.43 147.79,-59.01 205.31,-117.05 86.83,-87.62 122.38,-143.64 153.33,-276.48 -91.57,-48.45 -209.93,-174.74 -263.98,-268.81 -33.08,-57.59 -59.85,-112.74 -81.33,-182.82 -41.57,-135.58 -6.98,-128.13 -63.92,-137.55 -53.61,-8.87 -64.27,-6.29 -119.08,-6.29 -109.71,0 -237.25,67.06 -296.59,119.79 -50.4,44.79 -107.47,113.63 -132.6,176.33 -9.31,23.24 -18.86,53.11 -49.87,53.11 -27.38,0 -49.25,-11.65 -49.25,-40.3 0,-30.22 38.88,-100.58 56.33,-127.23l78.96 -100.13 63.05 -53.36c90.91,-73.74 231.3,-122.23 356.83,-122.23 31.94,0 101.44,4.1 120.89,13.43 0,-204.36 55.91,-392.67 189.04,-545.22 13.29,-15.23 18.81,-23.14 33.7,-37.94 36.19,-35.98 162.71,-155.57 207.07,-155.57 43.48,0 147.03,86.32 173.5,113.04 23.77,23.98 48.23,44.48 68.28,70.51 55.79,72.44 97.47,126.53 133.74,215.49 53.86,132.15 63.25,206.53 63.25,353.13 30.04,-0.67 48.48,-13.44 85.06,-13.44l62.68 0c91.26,0 208.06,64.65 263.58,134.9 16.4,20.75 29.5,34.87 42.43,60.54 12.45,24.69 21.35,40.74 30.42,68.08 9.06,27.32 23.5,97.89 21.24,125.2 -5.87,71.02 -12.38,49.56 34.45,83.27 15.93,11.47 23.01,17.71 36.74,30.42l35.72 35.9c11.14,11.18 20.46,23.6 29.8,37.37 41.57,61.27 65.46,134.39 69.75,208.57zm-1652.09 393.26c177.09,0 350.11,-118.92 449.49,-257.91l11.67 -15.2 0 559.65 -461.16 0 0 -286.54zm761.13 -787.99c0,-170.57 135.4,-299.97 295.49,-299.97 159.97,0 295.5,129.56 295.5,299.97 0,37.79 -8.96,50.59 -8.96,94.02 0,44.21 128,38.62 195.78,207.17 87.78,218.27 -92.4,433.07 -271.89,433.07l-49.25 0c-37.04,0 -143.27,-29.09 -143.27,-53.73l0 -246.24c0,-13.83 35.69,-42.41 45.89,-52.61l100.74 -100.74c20.07,-20.05 41.41,-33.58 41.41,-66.03 0,-28.65 -21.87,-40.3 -49.25,-40.3 -35.22,0 -95.88,92.15 -138.79,120.88 0,-38.44 13.45,-138.79 -40.29,-138.79 -65.52,0 -53.73,61.66 -53.73,125.36 0,61.19 0,122.38 0,183.57 -48.44,-32.44 -90.1,-111.93 -134.32,-111.93 -28.46,0 -60.64,42.42 -30.29,79.51l141.12 140.97c33.47,32.78 23.49,26.86 23.49,119.79 -32.11,7.48 -133.36,83.16 -276.11,11.95 -20,-9.97 -26.03,-13.07 -41.87,-25.28 -7.53,-5.81 -9.49,-7.72 -16.9,-14.44 -151.02,-136.96 -116.06,-367.71 69.16,-457.34 32.1,-15.54 82.16,-15.53 82.16,-61.11 0,-20.53 -35.82,-66.04 -35.82,-147.75zm-299.97 -259.68c-33.22,-22.24 -104.56,-120.88 -143.28,-120.88 -21.16,0 -44.77,19.76 -44.77,49.25 0,24.97 53.95,69.61 79.47,95.14 30.1,30.1 56.78,57.68 87.34,87.27 26.1,25.25 21.66,16.03 21.27,63.8l-0.03 264.19c-16.76,-4.48 -44.72,-34.23 -60.8,-46.66 -51.97,-40.2 -114.35,-133.59 -147.06,-188.73 -163.39,-275.36 -95.76,-649.71 119.43,-864.88 54.22,-54.22 65.86,-63.49 133.2,-108.58 22.51,15.08 47.55,30.12 68.16,48.25 70.85,62.3 118.81,110.21 168.88,193.77 63.64,106.22 107.7,241.95 107.7,375.84 0,34.15 -4.48,49.92 -4.48,85.07 -73.61,38.94 -149.18,143 -168.27,239.15 -35.01,176.35 53.89,122.45 -95.24,245.02 -9.79,8.05 -19.9,18.52 -31.98,21.75 0,-138.79 0,-277.59 0,-416.38 0,-111.48 -20.6,-75.66 57.08,-153.35 21.76,-21.75 95.14,-82.94 95.14,-115.28 0,-29.76 -19.03,-44.77 -49.24,-44.77 -31.8,0 -77.12,67.74 -102.98,85.06 0,-44.77 -0.01,-89.54 0,-134.31 0.01,-65.14 7.18,-98.5 -49.25,-98.5 -41.3,0 -40.49,35.62 -40.31,76.09l0.02 362.67z"/>
   <path class="fil0" d="M2018.07 448.55c-148.33,0 -237.73,-185.61 -122.14,-301.23 140.32,-140.35 364.81,27.86 284.97,195.43 -29.51,61.92 -83.6,105.8 -162.83,105.8zm-22.63 -443.24l57.37 0c42.3,4.75 84.34,20.25 122.62,48.59 10.49,7.77 25.01,19.25 34.21,28.46 9.21,9.21 20.7,23.73 28.47,34.22 7.13,9.63 17.48,27.37 23.36,39.32 23.39,47.48 25.23,80 25.23,131.47 0,98.98 -73.6,196.73 -165.58,232.89 -105.76,41.58 -208.38,20.01 -290.64,-58.73l-6.64 -6.79c-34.44,-36.8 -53.33,-70.88 -65.6,-122.45 -40.95,-171.99 89.73,-310.77 237.2,-326.98z"/>
   <path class="fil0" d="M-5.63 1326.08c0,64.4 89.55,64.4 89.55,0 0,-58.76 -89.55,-58.76 -89.55,0z"/>
  </g>
 </g>
</svg>
