<?xml version="1.0" encoding="UTF-8"?>
<!DOCTYPE svg PUBLIC "-//W3C//DTD SVG 1.1//EN" "http://www.w3.org/Graphics/SVG/1.1/DTD/svg11.dtd">
<!-- Creator: CorelDRAW 2021.5 -->
<svg xmlns="http://www.w3.org/2000/svg" xml:space="preserve" width="22.92mm" height="22.92mm" version="1.1" style="shape-rendering:geometricPrecision; text-rendering:geometricPrecision; image-rendering:optimizeQuality; fill-rule:evenodd; clip-rule:evenodd"
viewBox="0 0 2292 2292"
 xmlns:xlink="http://www.w3.org/1999/xlink"
 xmlns:xodm="http://www.corel.com/coreldraw/odm/2003">
 <defs>
  <style type="text/css">
   <![CDATA[
    .fil0 {fill:#24C95E}
   ]]>
  </style>
 </defs>
 <g id="Слой_x0020_1">
  <metadata id="CorelCorpID_0Corel-Layer"/>
  <g id="_1877557389136">
   <path class="fil0" d="M218.74 747.97l1843.58 0 0 291.1 -343.66 0c-59.27,0 -59.27,97.01 0,97.01l214.27 0 0 849.03c0,53.01 -35.94,88.95 -88.94,88.95l-1406.92 0c-53.01,0 -88.95,-35.94 -88.95,-88.95l0 -849.03 214.28 0c59.26,0 59.26,-97.01 0,-97.01l-343.66 0 0 -291.1zm1229.07 -97.01l-254.72 0c0,-44.65 14.62,-108.41 24.21,-145.62 9.83,-38.44 30.46,-94.23 49.34,-124.5l33.25 -51.63c30.27,-40.64 71.83,-78.44 121.95,-92.33 58.83,-16.33 129.44,4.01 172.47,41.13 6.75,5.82 10.85,7.82 15.99,12.32l23.57 29c52.32,74.08 53,167.53 0,242.73 -43.08,61.12 -110.81,88.9 -186.06,88.9zm-840.96 -210.27c0,-46.35 19.6,-97.5 49.48,-132.41l26.21 -26.36c27.34,-22.49 51.05,-37.02 88.31,-45.13 46.95,-10.22 70.76,-7.39 114.47,10.31 22.2,9.05 34.48,20.84 51.45,33.5 17.8,13.35 47.62,49.49 59.6,69.78 6.46,10.95 9.73,17.11 16.43,28.02l27.97 56.96c22.25,51.94 47.19,161.08 47.19,215.6 -77.65,0 -290.26,10.02 -347.67,-16.19 -36.23,-16.52 -31.98,-14.27 -67.19,-41.95 -9.04,-7.14 -5.38,-4.99 -11.29,-12.96l-24.3 -32.32c-16.04,-25.28 -30.66,-74.77 -30.66,-106.85zm-97.02 -20.19c0,56.87 0.39,93.05 26.85,146.99 24.54,49.88 29.24,46.45 54.03,83.47 -35.01,0 -420.87,-6.11 -443.66,5.08 -13.74,6.75 -25.33,20.88 -25.33,39.37l0 396.23c0,57.6 76.23,44.44 129.34,44.44l0 869.23c0,46.06 27.58,90.27 51.54,114.23 24.01,24.01 68.21,51.54 114.22,51.54l1443.35 0c90.27,0 169.83,-84.11 169.83,-165.77l0 -869.23c53.1,0 129.34,13.16 129.34,-44.44l0 -396.23c0,-50.61 -58,-44.45 -80.83,-44.45l-388.16 0c56.08,-83.76 80.88,-101.66 80.88,-230.46 0,-39.8 -15.8,-84.3 -28.95,-112.57 -22.94,-49.58 -71.79,-103.86 -119.32,-131.34 -85.47,-49.43 -203.12,-62.93 -287.57,-10.02 -51.05,32.03 -29.09,19.51 -63.86,45.33 -6.99,5.18 -13.6,11.49 -18.53,17.85 -7.68,9.87 -7,10.36 -16.48,19.9 -29.69,29.83 -81.71,118.77 -91.93,162.78l-8.12 0c-2.69,-11.59 -4.4,-16.33 -9.44,-26.94 -22.25,-47.14 -45.08,-98.24 -82.49,-135.84 -15.21,-15.26 -16.04,-23.67 -35.01,-37.75 -10.91,-8.07 -10.47,-8.9 -19.66,-16.78 -12.47,-10.7 -29.73,-19.55 -44.16,-28.55 -124.79,-77.95 -325.56,-21.47 -405.71,138.58 -13.54,27.04 -30.17,77.21 -30.17,115.35z"/>
   <path class="fil0" d="M841.36 1322.1l165.63 -24.41c16.08,-1.8 34.66,-6.06 45.52,-19.16 7.24,-8.81 81.17,-158.63 83.96,-170.71l8.12 0c2.78,12.08 76.72,161.9 83.96,170.71 22.34,27.04 154.47,30.36 211.14,43.57 -26.75,39.95 -98.04,89.38 -132.47,130.26 -20.97,24.94 -7.28,65.57 -0.48,107.77l19.75 113.69c-15.75,-3.66 -65.77,-32.9 -88.95,-44.49l-44.4 -24.31c-53.49,-27.23 -51.15,-26.99 -102.54,-1.32 -10.02,4.99 -11.73,6.56 -20.44,11.89l-69.53 35.59c-15.26,9.34 -27.87,18.39 -46.06,22.64l28.31 -165.76c8.51,-51.54 -7.83,-55.01 -55.55,-102.15 -15.8,-15.6 -64.3,-51.44 -85.97,-83.81zm141.47 -121.32l-247.09 35.94c-27.43,4.2 -52.07,15.25 -52.07,48.95 0,35.59 54.52,76.52 91.97,114.22 4.75,4.75 7.19,7.78 12.08,12.18l42.5 38.38c61.46,61.47 54.91,39.95 45.18,95.65l-21.62 128.02c-5.57,27.28 -11,57.45 -15.06,86.35 -4.01,28.46 15.06,54.82 55.21,54.82 15.01,0 51.98,-21.61 63.86,-29.1l182.74 -96.23c35.45,18.78 229.33,125.33 246.59,125.33 73.74,0 52.91,-65.48 48.56,-92.96l-36.38 -218.33c0,-4.26 42.84,-44.89 49.49,-51.54l107.18 -103.08c14.33,-14.38 69,-54.81 26.41,-97.21 -19.56,-19.56 -75.8,-21.96 -117.95,-27.58 -25.67,-3.47 -53.83,-8.51 -81.17,-11.83 -24.89,-2.99 -60.73,-11.44 -85.03,-11.98l-120.69 -243.18c-17.31,-18.38 -50.36,-21.22 -71.93,-1.95 -8.46,7.58 -119.46,231.04 -122.78,245.13z"/>
  </g>
 </g>
</svg>
