<?xml version="1.0" encoding="UTF-8"?>
<!DOCTYPE svg PUBLIC "-//W3C//DTD SVG 1.1//EN" "http://www.w3.org/Graphics/SVG/1.1/DTD/svg11.dtd">
<!-- Creator: CorelDRAW 2021.5 -->
<svg xmlns="http://www.w3.org/2000/svg" xml:space="preserve" width="22.92mm" height="22.92mm" version="1.1" style="shape-rendering:geometricPrecision; text-rendering:geometricPrecision; image-rendering:optimizeQuality; fill-rule:evenodd; clip-rule:evenodd"
viewBox="0 0 2292 2292"
 xmlns:xlink="http://www.w3.org/1999/xlink"
 xmlns:xodm="http://www.corel.com/coreldraw/odm/2003">
 <defs>
  <style type="text/css">
   <![CDATA[
    .fil0 {fill:#24C95E}
   ]]>
  </style>
 </defs>
 <g id="Слой_x0020_1">
  <metadata id="CorelCorpID_0Corel-Layer"/>
  <g id="_1841139940432">
   <path class="fil0" d="M1780.69 1952.78c-49.62,0 -111.33,-27.95 -137.65,-59.32 -44.51,-53.05 -32.88,-40.28 29.08,-102.96l435.36 -410.73c7.85,14.84 12.49,29.7 20.86,46.29 9.62,19.04 13.81,28.7 22.49,49.14 6.82,16.09 14.3,28.98 22.31,44.84 8.79,17.43 13.9,31.52 22.43,49.2 36.62,75.97 11.99,156.21 -31.06,207.78 -32.7,39.17 -128.42,75 -177.86,99.7 -15.28,7.64 -29.68,12.42 -46.32,20.83 -19.05,9.61 -28.71,13.8 -49.15,22.48 -36.52,15.49 -58.19,32.75 -110.49,32.75zm-649.7 -1947.34l19.32 0c21.93,1.68 43.45,9.08 61.96,22.26 34.29,24.42 92.76,93.97 111.8,129.95 208.22,-48.51 418.01,-53.72 621.68,18.47 15.41,5.46 28.96,10.28 39.87,22.8 32.13,36.85 25.04,103.68 -29.67,125.03 -12.62,4.93 -29.6,8.09 -43.4,14.8 -2.22,1.08 -14.91,8.08 -17.28,9.59 -12.11,7.73 -8.07,1.95 -11.62,15.23 20.69,1.72 52.27,19.5 70.13,28.35l58.68 39.81c19.62,18.64 30.95,30.45 45.8,52.69 57.78,86.53 13.13,152.23 -49.27,152.23 -27.85,0 -78.56,-34.46 -188.02,-8.95l40.34 53.67c12.62,17.95 22.68,34.94 34.9,54.63l340.47 733.93c12.48,31.86 49.87,92.65 49.87,129.2l0 91.72c-2.09,27.68 -8.39,53.92 -25.33,84.4 -45.9,82.65 -89.29,98.92 -164.28,135.66 -13.65,6.68 -22.03,11.6 -35.67,18.04l-67.2 31.3c-85.38,43.09 -168.34,85.04 -267.54,64.6 -24.91,-5.13 -52.66,-14.62 -72.73,-25.76 -11.09,-6.16 -22.36,-13.59 -32.53,-21.19l-39.4 -36.7c-5.17,-6.91 -5.28,-6 -10.32,-12.07 -76.84,-92.49 -56.49,-222.56 -225.1,-222.56 -22.1,0 4.49,3.62 -16.4,2.34l-55.38 -2.19c-21.8,-0.91 -45.34,-8.62 -67,-9.11 2.86,12.27 5.86,19 9.03,31.27 2.46,9.56 4.05,17.87 7.24,28.57 5.99,20.11 10.25,36.96 15.11,56.52 10.01,40.34 17.7,78.5 27.77,119.96 8.21,33.82 48.29,211.63 48.29,247.16 0,69.06 -52.51,116.4 -102.96,116.4l-1114.69 0c-49.98,0 -102.96,-52.98 -102.96,-102.97l0 -684.92c0,-70.46 10.07,-118.87 13.46,-174.56 4.17,-68.48 43.38,-249.77 59.06,-312.5l39.4 -144.15c0,-51.78 -80.58,-81.37 -80.58,-138.78 0,-46.82 29.2,-71.5 73.36,-78.84l128.09 -10.69c-5.15,-10.74 -4.54,-17.33 -10.31,-29.99 -36.68,-80.56 -119.52,-72.74 -119.52,-149.08 0,-111.78 169.01,-76.56 228.31,-71.62 -12.76,-19.07 -21.35,-16.23 -34.78,-32.38 -46.35,-55.75 1.16,-128.78 48.21,-128.78 80.65,0 160.27,17.9 201.45,17.9 -22.22,-33.19 -22.38,-19.8 -22.38,-67.15 0,-32.76 38.08,-67.15 71.63,-67.15 169.78,0 324.86,62.03 353.65,62.68 6.96,-29.88 65.97,-106.13 89.48,-125.41l35.75 -31.39c18.6,-13.15 40.22,-20.58 62.21,-22.27zm-312.79 653.59c-26.47,39.53 -52.92,76.3 -74.65,122.32 -18.97,40.17 -41.86,103.55 -49.63,147.34l-10.04 88.45c-6.15,85.15 -2.03,29.9 0.15,89.44 2.48,68.21 16.04,113.17 34,167.44 32.48,98.21 82.64,168.1 149.73,239.74 58.4,62.36 171.27,138.56 250.38,156.99l53.72 201.45c7.04,28.31 70.4,297.95 64.89,319.76 -9.55,37.76 -55.98,29.42 -100.7,29.42 -128.16,0 -1012.22,4.55 -1036.17,-2.41 -37.91,-11.03 -29.28,-54.42 -29.28,-100.55 0,-119.89 -5.87,-575.35 5.38,-643.74 16.27,-98.99 167.86,-320.77 236.4,-412.71 4.79,-6.42 8.57,-11.57 13.35,-17.99 5.73,-7.68 8.37,-9.7 14.22,-17.12 6.48,-8.21 5.41,-8.96 13.72,-17.62 8.42,-8.78 9.85,-9.38 16.87,-18.94 26.04,-35.47 127.74,-136.33 160.37,-161.95l194.8 -131.99c21.5,-10.72 69.47,-35.41 92.49,-37.33zm0 0l0 -4.47 5.23 3.72 -5.23 0.75zm170.12 -331.27c0,-79.17 40.87,-155.06 90.63,-204.82 52.08,-52.08 68.97,-54.7 118.67,-4.49 155.71,157.3 99.02,317.32 -16.88,468.89 -35.61,46.57 -0.21,71.69 22.46,71.69 30.03,0 62.55,-51.19 76.1,-71.62 14.75,-22.24 47.31,-70.97 53.72,-98.49 64.74,0 118.54,7.46 168.46,24.03 38.91,12.91 99.02,38.81 132.44,60.06l80.68 62.58c59.54,60.03 81.83,78.39 127.33,163.65 20.99,39.33 29.8,82.71 58.13,138.84l171.61 365.59c-11.1,16.57 -16.5,14.77 -30.33,27.87l-60.22 60.65c-8.7,8.25 -9.45,7.19 -17.69,13.65l-264.49 250.32c-21.26,19.06 -39.59,40.14 -60.31,60.56 -12.09,11.9 -19.18,14.36 -31.48,26.72 -11.32,11.38 -19.69,21.77 -32.39,30.28 -13.34,-57.26 -83.08,-118.72 -146.72,-135.31 -31.47,-8.2 -44.39,-7.97 -86.07,-7.94 -119.17,0.06 -226.86,-33.79 -300.82,-79.69l-80.79 -57.99c-53.19,-49.69 -91.3,-84.04 -128.66,-157.85 -49.65,-98.13 -71.69,-162.72 -71.69,-286.44 0,-106.03 36.34,-206.54 75.93,-273.24 10.75,-18.1 20.4,-33.97 33.32,-51.74l30.31 -36.84c5.31,-6.7 3.09,-5.57 9.35,-13.04 16.73,-19.98 72.32,-68.54 97.3,-81.76 65,122.84 138.02,44.95 92.91,-7.85l-44.6 -58.36c-7,-11.09 -13.77,-21.99 -20,-33.72 -20.59,-38.82 -46.21,-107.44 -46.21,-164.19zm367.08 -98.49c18.82,0 149.54,-26.86 250.7,-26.86 82.95,0 102.89,3.97 179.23,13.26 46.59,5.68 123.06,30.59 134.13,31.51 -13.41,18.31 -2.38,1.46 -41.88,20.79 -97.85,47.89 -104.95,131.01 -69.42,153.18 9.1,5.67 173.3,35.94 196.36,134.92 -47.52,-22.8 -126.83,-19.9 -179.5,-9.38 -102.65,20.51 -26.52,41.72 -145.47,-37.22 -26.96,-17.89 -59.54,-35.87 -90.69,-48.08 -65.64,-25.72 -148.37,-53.05 -224.5,-53.05 0,-43.88 18.32,-122.21 -8.96,-179.07zm-756.55 -26.86c154.77,0 291.61,56.02 317.84,58.2l-4.47 85.06c0,65.94 26.18,131.01 49.24,174.59 -27.6,41.2 -89.6,28.57 -180.99,65.22 -124.23,49.81 -174.81,86.9 -278.29,164.9l-52.17 46.32c-38.49,38.9 -28.09,22.84 -73.83,73.9 -18.21,20.32 -29.21,25.94 -47.75,50.74 -8.62,11.54 -15.28,15.17 -23.86,25.38l-21.73 27.51c-9.13,11.99 -12.73,15.58 -21.64,27.6 -15.09,20.36 -27.3,36.69 -42.16,56.33l-111.25 170.77c-5.27,7.83 -2.15,3.33 -5.85,7.59 6.06,-72.8 85.06,-347.59 85.06,-353.66 0,-71.76 -64.59,-119.37 -80.58,-143.25 23.1,-0.51 66.81,-9 116.39,-8.95 82.89,0.09 80.58,-6.39 80.58,-85.06 0,-38.41 -19.69,-77.74 -43.6,-104.13 -23.75,-26.22 -75.12,-67.52 -77.27,-70.46 47.08,0 82.5,-0.71 124.26,5.57 49.11,7.38 148.36,57.85 148.28,-14.42 -0.05,-51.92 -60.12,-110.47 -97.95,-143.35 48.5,0 84.52,3.76 127.97,10.8l122.72 20.53c5.36,0 21.55,-7.53 25.27,-10.54 27.76,-22.41 -3.01,-95.58 -18.04,-117.55 -6.36,-9.29 -9.82,-10.15 -16.18,-19.64z"/>
   <path class="fil0" d="M1597.14 1035.07c-40.7,0 -54.9,-71.63 4.48,-71.63 46.59,0 44.78,71.63 -4.48,71.63zm-111.91 -49.24c0,52.49 -0.98,59.25 36.86,97.43 42.08,42.44 112.86,41.75 154.58,0.01 52.96,-52.97 45.97,-132.38 1.17,-169.19 -93.14,-76.51 -192.61,2.31 -192.61,71.75z"/>
   <path class="fil0" d="M2017.95 1648.37c0,51.43 78.96,53.1 78.96,0 0,-51.65 -78.96,-53.55 -78.96,0z"/>
  </g>
 </g>
</svg>
