<?xml version="1.0" encoding="UTF-8"?>
<!DOCTYPE svg PUBLIC "-//W3C//DTD SVG 1.1//EN" "http://www.w3.org/Graphics/SVG/1.1/DTD/svg11.dtd">
<!-- Creator: CorelDRAW 2021.5 -->
<svg xmlns="http://www.w3.org/2000/svg" xml:space="preserve" width="22.92mm" height="22.92mm" version="1.1" style="shape-rendering:geometricPrecision; text-rendering:geometricPrecision; image-rendering:optimizeQuality; fill-rule:evenodd; clip-rule:evenodd"
viewBox="0 0 2292 2292"
 xmlns:xlink="http://www.w3.org/1999/xlink"
 xmlns:xodm="http://www.corel.com/coreldraw/odm/2003">
 <defs>
  <style type="text/css">
   <![CDATA[
    .fil0 {fill:#24C95E}
   ]]>
  </style>
 </defs>
 <g id="Слой_x0020_1">
  <metadata id="CorelCorpID_0Corel-Layer"/>
  <g id="_1877566265344">
   <path class="fil0" d="M1232.7 2025.14zm-169.97 26.71l169.97 -26.71zm-169.97 26.71l-341.59 -190.17c-9.7,-5.38 -17.05,-9.73 -26.67,-14.61 -12.61,-6.4 -43.59,-25.84 -54.23,-28.32l329.62 -330.83c18.9,27.65 51.18,66.14 73.11,93.22 22.57,27.87 90.96,112.17 116.99,118.6 19.74,4.87 35.62,-2.24 47.83,-12.73l165.08 -201.57c5.41,-7.31 8.57,-12.37 14.18,-19.81 10.45,-13.82 18.17,-25.83 28.44,-39.55 8.72,-11.65 50.08,-70.88 52.73,-80.81 15.02,1.25 83.13,44.43 96.36,51.76 32.65,18.12 63,35.47 95.47,52.65 -2.51,9.39 -9.96,13.62 -16.39,20.03 -68.12,67.93 -572.83,570.05 -580.93,582.14zm169.97 -26.71c8.56,-12.78 458.04,-459.14 521.43,-522.65 9.54,-9.55 12.01,-15.9 27,-19.13l298.98 -65.25c-11,16.43 -214.75,211.46 -248.26,249.51 -50.61,57.47 -145.83,148.22 -203.98,206.37l-78.77 79.06c-6.66,6.5 -5.44,5.76 -16.23,8.04l-300.17 64.05zm-995.53 -138.4l440.1 -441.31c15.61,-15.61 60.19,-64.88 76.65,-71.46 16.52,-6.61 36.64,-12.12 53.86,-18.99l55.85 -19.42 46.13 70.41c-11.63,7.79 -279.12,277.91 -288.34,287.13l-90.08 89.6c-6.11,3.94 -18.52,6.95 -26.36,10.05l-267.81 93.99zm937.25 -310.8c-8,-5.36 -14.48,-12.25 -20.82,-20.45l-128.33 -160.61c-67.13,-89.03 -138.64,-208.32 -189.18,-308.59 -5.13,-10.18 -7.78,-18.19 -12.91,-28.36 -71.66,-141.94 -138.18,-355.75 -74.71,-519.83 2.98,-7.72 4.25,-11.93 7.25,-19.45 3.57,-8.93 5.56,-11.98 9.03,-20.11 20.53,-48.1 57.86,-96.57 92.19,-131.2 58.27,-58.75 136.68,-98.42 217.42,-117.66 16.86,-4.01 83.46,-12.42 102.54,-11.74 28.09,1 73.11,7.42 98.93,12.83 190.14,39.86 347.79,226.79 347.79,438.91 0,124.97 -44.65,228.64 -86.37,328.84 -4.81,11.55 -8.3,18.09 -13.21,28.06 -4.88,9.9 -8.39,19.37 -13.73,29.98l-89.62 160.47c-44.98,73.1 -118.08,181.38 -171.56,246.08l-36.61 45.95c-9.38,11.11 -32.55,36.41 -38.1,46.88zm-551.18 -912.97c0,96.47 0.86,110.89 25.28,207.82 12.04,47.79 27.27,92.42 44.44,135.24 8.65,21.57 16.63,42.73 26.57,63.27 5.16,10.67 8.5,19.43 13.76,29.95 5.52,11.03 10.2,19.54 15.39,30.75 9.75,21.06 18.81,40.39 30.07,59.76l31.46 58.39c-9.44,4.53 -25.05,8.78 -36.12,12.44l-72.19 24.94c-18.77,7.99 -107.94,102.38 -126.61,121.05l-540.26 540.25c-22.68,22.69 -40.67,30.85 -40.67,66.17 0,26.72 21.82,46.14 53.42,46.14 12.13,0 149.99,-49.76 172.71,-57.97 11.56,-4.18 22.53,-8.34 33.99,-12.14 88.62,-29.42 185.52,-66.92 273.14,-95.93 32.42,-10.73 15.19,-12.33 75.43,21.12l29.92 16.21c6.28,3.25 8.72,5.38 15.36,8.92 11.36,6.06 18.59,10.12 29.95,16.18 6.46,3.45 7.3,4.66 13.76,8.1l45.31 25.1c51.77,26.73 110.22,62.62 162.73,89.8l104.36 58.32c50.9,26.28 45.78,34.81 89.86,24.27l183.5 -39.89c71.61,-15.77 139.38,-30.14 211.25,-46.12 122.97,-27.35 88.03,-7.06 167.96,-87l271.97 -271.92c6.93,-6.86 8.55,-10.17 14.57,-17l97.1 -97.15c18.08,-18.07 223.34,-220.05 237.58,-240.75 19.53,-28.37 4.88,-79.15 -40.3,-79.15 -12.39,0 -80.44,16.09 -96.64,19.91l-339.02 73.75c-56.47,12.44 -38.83,19.07 -124.19,-31.56l-151.58 -83.95c0.57,-6.86 57.87,-108.46 66.37,-125.46 106.07,-212.15 186.98,-441.62 84.14,-670.94 -37.92,-84.58 -108.95,-172.74 -184.02,-223.89 -82.59,-56.27 -140.73,-80.31 -242.56,-97.38 -21.65,-3.63 -40.72,-2.54 -66.26,-4.34 -92.76,-6.54 -199.15,25.37 -271.18,64.15 -24.64,13.26 -60.15,36.87 -81.69,54.28 -36.35,29.38 -72.77,65.95 -100.56,103.41 -58.23,78.52 -107.5,194.8 -107.5,302.85z"/>
   <path class="fil0" d="M965.61 689.68c0,-143.82 144.29,-249.68 286.9,-192.2 38.13,15.37 59.92,35.95 83.88,64.23 6.8,8.01 15,21.99 20.07,30.91 30.56,53.7 28.92,131.4 0.89,187.72 -57.05,114.64 -206.8,147.54 -305.08,75.2 -52.43,-38.6 -86.66,-99.32 -86.66,-165.86zm-99.56 -9.71c0,53.19 8.49,95.68 28.3,136.81 97.17,201.84 350.93,233.9 494.37,89.62 120.66,-121.36 121.83,-314.2 4.84,-431 -26.94,-26.89 -31.12,-30.12 -61.76,-49.93 -8.41,-5.45 -16,-8.66 -25.45,-13.4 -95.59,-48.06 -222.68,-39.43 -309.56,24.71 -6.93,5.12 -14.11,10.02 -20.77,15.65l-22.31 21.4c-0.34,0.36 -0.82,0.89 -1.16,1.26 -22.77,24.62 -44.46,50.37 -57.72,83.11 -16.38,40.45 -28.78,73.03 -28.78,121.77z"/>
  </g>
 </g>
</svg>
