<?xml version="1.0" encoding="UTF-8"?>
<!DOCTYPE svg PUBLIC "-//W3C//DTD SVG 1.1//EN" "http://www.w3.org/Graphics/SVG/1.1/DTD/svg11.dtd">
<!-- Creator: CorelDRAW 2021.5 -->
<svg xmlns="http://www.w3.org/2000/svg" xml:space="preserve" width="22.92mm" height="22.92mm" version="1.1" style="shape-rendering:geometricPrecision; text-rendering:geometricPrecision; image-rendering:optimizeQuality; fill-rule:evenodd; clip-rule:evenodd"
viewBox="0 0 2292 2292"
 xmlns:xlink="http://www.w3.org/1999/xlink"
 xmlns:xodm="http://www.corel.com/coreldraw/odm/2003">
 <defs>
  <style type="text/css">
   <![CDATA[
    .fil0 {fill:#24C95E}
   ]]>
  </style>
 </defs>
 <g id="Слой_x0020_1">
  <metadata id="CorelCorpID_0Corel-Layer"/>
  <g id="_1877041265984">
   <path class="fil0" d="M861.4 1410.39c84.83,0 68.77,-91.57 68.77,-145.65l0 -534c0,-34.06 -5.38,-78.09 9.61,-99.62 14.69,-21.08 39.33,-35.78 70.62,-25.31 24.77,8.29 41.23,29.2 41.35,64.02 0.24,65.93 -5.04,499.68 3.56,530.45 20.21,72.24 128.31,63.76 129.92,-20.3l-0.39 -251.21c0.49,-23.58 5.14,-34.78 17.12,-47.6 6.05,-6.46 9.09,-10.12 18.22,-14.16 29.89,-13.2 57.17,-3.45 74.27,17.28 14.05,17.01 12.1,30.13 11.96,60.85l-0.16 295.48c0.02,125.4 130.23,105.55 133.79,24.25 3.25,-74.44 -3.53,-168.54 -0.26,-242.99 0.88,-20.22 6.13,-32.64 17.09,-43.59 29.57,-29.55 69.83,-24.99 90.82,0.66 29.09,35.52 17.63,136.22 17.63,192.75 0,45.84 0.23,91.74 -0.04,137.58 -0.16,28.13 -2.56,40.51 10.76,58.01 26.3,34.59 72.75,36.67 101.76,5.9 11.16,-11.84 16.76,-21.25 17.21,-43.47 1.25,-62.27 -3.87,-194.81 -0.19,-242.93 6.55,-85.68 125.36,-88.54 125.36,12.09l0 550.19c0,95.97 -23.14,164.58 -79.65,231.85 -62.71,74.64 -149.24,112.02 -252.08,112.02l-453.1 0c-158.95,0 -255,-79.73 -307.53,-186.03 -13.27,-26.85 -21.44,-60.81 -31.77,-89.58 -20.3,-56.52 -169.71,-329.12 -209.55,-409.42 -13.59,-27.42 -36.33,-54.28 -14.36,-84.48 51.01,-70.14 201.61,39.27 246.76,78.63 13.02,11.34 19.58,15.55 32.26,28.41l34.35 30.39c22.42,19.74 35.8,49.53 75.89,49.53zm-64.73 -218.47c-16.82,-4.49 -139.3,-121.37 -262.97,-121.37l-32.35 0c-84.97,0 -169.92,85.38 -169.92,169.92 0,50.59 -0.08,50.89 21.62,95.7l163.15 314.22c21.23,39.46 48.16,88.33 61.5,128.65 37.43,113.11 61.1,154.14 145.05,235.22 13.39,12.93 37.44,30.1 53.42,39.63 9.7,5.8 19.15,11.73 30.23,18.31 41.86,24.86 128.93,50.19 188.5,50.19l525.92 0c61.93,0 128.75,-21.49 172.63,-41.77 35.83,-16.55 99.47,-60.34 125.85,-88.56 9.45,-10.11 13.8,-17.41 24.14,-28.45 56.86,-60.81 106.2,-182.71 106.2,-274.09l0 -618.97c0,-47.02 -31.43,-97.39 -55.49,-122.51 -59.09,-61.71 -153.88,-72.42 -231.75,-31.21 -2.87,-10.76 -15.18,-25.65 -23.09,-33.55 -8.72,-8.69 -23.85,-19.58 -34.24,-26.43 -42.44,-28.01 -100.8,-36.64 -151.53,-23.47 -15.24,3.95 -21.89,7.85 -33.87,10.62 -1.39,-16.81 -14.18,-29.67 -23.07,-41.65 -13.08,-17.59 -17.22,-21.12 -34.65,-34.11 -56.11,-41.82 -111.65,-44.62 -176.92,-29.42 0,-89.13 1.88,-132.91 -36.29,-186.21 -79.59,-111.14 -241.76,-105.21 -313.33,-1.59 -40.42,58.51 -38.74,93.7 -38.74,187.8 0,151.04 0,302.07 0,453.1z"/>
   <path class="fil0" d="M1168.85 407.1c0,32.53 48.69,116.2 134.53,29.34 39.14,-39.59 92.89,-79.28 89.43,-124.84 -4.26,-56.17 -71.33,-82.78 -120.77,-31.91 -6.36,6.56 -1.74,1.95 -8.22,7.96l-68.99 68.56c-11.07,13.25 -25.98,29.95 -25.98,50.89z"/>
   <path class="fil0" d="M784.53 475.87c40.01,0 104.18,-55.01 39.5,-124.45l-83.85 -82.03c-67.79,-52.55 -164.33,28.95 -75.41,111.83l79.7 78.07c9.27,7.11 26.89,16.58 40.06,16.58z"/>
   <path class="fil0" d="M1302.35 593.19c0,44.75 27.3,72.81 56.64,72.81l145.64 0c29.34,0 56.64,-28.06 56.64,-72.81 0,-25.26 -31.38,-56.64 -56.64,-56.64l-145.64 0c-25.26,0 -56.64,31.38 -56.64,56.64z"/>
   <path class="fil0" d="M460.88 593.19c0,44.75 27.31,72.81 56.65,72.81l145.64 0c29.33,0 56.63,-28.06 56.63,-72.81 0,-25.26 -31.38,-56.64 -56.63,-56.64l-145.64 0c-25.27,0 -56.65,31.38 -56.65,56.64z"/>
   <path class="fil0" d="M946.35 237.18l0 145.64c0,29.34 28.06,56.63 72.82,56.63 25.26,0 56.63,-31.36 56.63,-56.63l0 -145.64c0,-29.34 -28.06,-56.63 -72.82,-56.63 -25.25,0 -56.63,31.38 -56.63,56.63z"/>
  </g>
 </g>
</svg>
