<?xml version="1.0" encoding="UTF-8"?>
<!DOCTYPE svg PUBLIC "-//W3C//DTD SVG 1.1//EN" "http://www.w3.org/Graphics/SVG/1.1/DTD/svg11.dtd">
<!-- Creator: CorelDRAW 2021.5 -->
<svg xmlns="http://www.w3.org/2000/svg" xml:space="preserve" width="22.92mm" height="22.92mm" version="1.1" style="shape-rendering:geometricPrecision; text-rendering:geometricPrecision; image-rendering:optimizeQuality; fill-rule:evenodd; clip-rule:evenodd"
viewBox="0 0 2292 2292"
 xmlns:xlink="http://www.w3.org/1999/xlink"
 xmlns:xodm="http://www.corel.com/coreldraw/odm/2003">
 <defs>
  <style type="text/css">
   <![CDATA[
    .fil0 {fill:#24C95E}
   ]]>
  </style>
 </defs>
 <g id="Слой_x0020_1">
  <metadata id="CorelCorpID_0Corel-Layer"/>
  <path class="fil0" d="M237.88 1529.96l1803.71 0c0,35.08 -8.82,47.42 -9.45,75.55l-816.86 0 0 75.55 788.54 0c-11.55,49.55 -71.63,128.32 -103.84,170.02 -36.53,47.31 -209.33,207.72 -255.02,207.72l-165.26 0 0 75.55 151.09 0 0 75.55 -982.12 0 0 -75.55 491.06 0 0 -75.55 -505.23 0c-22.96,0 -95.45,-57.03 -113.41,-70.74l-82.1 -73.71c-0.69,-0.69 -1.66,-1.7 -2.32,-2.4l-55.17 -58.16c-15.18,-19.42 -27.19,-33.43 -40.74,-53.7 -18.78,-28.07 -57.19,-85 -65.11,-119.03l410.79 0 0 -75.55 -439.12 0c-0.64,-28.13 -9.44,-40.47 -9.44,-75.55zm826.3 151.1l75.55 0 0 -75.55 -75.55 0 0 75.55zm-151.09 0l75.54 0 0 -75.55 -75.54 0 0 75.55zm-151.1 0l75.55 0 0 -75.55 -75.55 0 0 75.55zm37.78 -453.29l75.54 0 0 -75.55 -75.54 0 0 75.55zm-188.88 -75.55l75.55 0 0 -75.55 -75.55 0 0 75.55zm717.71 -37.78l75.55 0 0 -75.54 -75.55 0 0 75.54zm302.19 -151.09l75.56 0 0 -75.55 -75.56 0 0 75.55zm-188.86 -491.07l75.54 0 0 -75.54 -75.54 0 0 75.54zm-604.39 -339.96l75.55 0 0 -75.56 -75.55 0 0 75.56zm831.03 415.52c0,-47.71 75.55,-47.71 75.55,0 0,47.69 -75.55,47.69 -75.55,0zm-75.55 -9.45c0,164.59 226.65,164.59 226.65,0 0,-57.8 -49.64,-103.88 -122.77,-103.88 -51.95,0 -103.88,51.94 -103.88,103.88zm-453.29 -330.53c0,-47.7 75.55,-47.7 75.55,0 0,47.71 -75.55,47.71 -75.55,0zm-75.55 -9.44c0,164.6 226.65,164.6 226.65,0 0,-57.8 -49.64,-103.88 -122.77,-103.88 -51.95,0 -103.88,51.94 -103.88,103.88zm382.46 -103.88c70.43,0 103.3,7.99 145.11,39.05 36.54,27.14 60.41,61.85 72.1,112.05 -95.94,0 -171.99,-30.58 -205.92,-115.17 -4.89,-12.19 -7.15,-26.68 -11.29,-35.93zm-80.27 -37.78c0,149.16 121.59,264.42 250.27,264.42 99.3,0 127.48,12.75 127.48,-51.93 0,-128.67 -121.58,-250.25 -250.26,-250.25 -65.91,0 -127.49,-13 -127.49,37.76zm-217.2 585.51c0,-40.66 103.7,-107.68 283.31,160.54 -84.61,-19.71 -172.57,-24.51 -242.07,-88.47 -12.64,-11.64 -41.24,-51.31 -41.24,-72.07zm-160.54 -193.6c0,56.91 51.42,136.15 89.72,146.38 -0.96,43.4 -25.45,90.38 50.69,166.51 34.81,34.82 55.08,47.19 100.33,69.66 54.71,27.17 204.92,56.58 288.1,56.58 22.84,0 37.78,-14.93 37.78,-37.78 0,-17.17 -190.32,-325.79 -344.69,-325.79 -67.81,0 -75.89,41.86 -122.94,-23.43 -15.08,-20.92 -16.68,-37.26 -23.44,-66.29l-75.55 0 0 14.16zm-495.78 99.17l58.15 -36.29c20.48,-12.31 39.98,-24 59.89,-34.54l0 61.38 -118.04 9.45zm193.59 -28.34l-226.65 -47.22 226.65 47.22zm0 0l0 -89.71c16.02,-3.73 29.34,-14.25 43.36,-22.75 15.17,-9.21 27.63,-15.09 41.63,-24.47 0,58.16 -26.09,123.21 -84.99,136.93zm-226.65 -47.22c6.08,-22.78 34.38,-51.64 47.22,-70.82 16.09,3.75 28.17,9.02 47.22,9.44 -4.54,17.02 -5.41,13.06 -42.49,33.06 -15.1,8.13 -35.92,24.04 -51.95,28.32zm108.61 -141.65c48.6,-12.98 46.37,-46.59 165.26,-18.89 -3.38,2.94 -1.04,1.55 -7.69,6.49 -67.16,49.99 -74.84,40.76 -136.21,24.08 -22.9,-6.21 -10.08,3.72 -21.36,-11.68zm-259.7 254.97c0,22.46 12.54,33.05 29.4,36.71 93.35,20.24 321.11,-5.67 379.49,-29.16 176.8,-71.14 194.08,-371.12 -35.87,-371.12 -124.31,0 -175.56,51.87 -240.87,136.88 -25.18,32.77 -132.15,191.13 -132.15,226.69zm868.81 793.27c46.31,0 94.92,37.13 103.88,75.54l-207.76 0c8.94,-38.41 57.56,-75.54 103.88,-75.54zm-302.2 0c18.78,0 55.21,13.88 67.01,22.7 14.57,10.9 32.28,33.15 36.87,52.84l-207.76 0c10.39,-44.58 63.37,-75.54 103.88,-75.54zm557.17 75.54l-28.33 0c0,-113.3 37.79,-151.09 151.1,-151.09 0,80.31 -24.21,151.09 -122.77,151.09zm-1048.23 -122.76l0 -28.33c113.3,0 151.1,37.79 151.1,151.09 -80.12,0 -151.1,-22.39 -151.1,-122.76zm599.67 4.72c-137.12,-91.81 -290.64,22.78 -292.76,118.04l-80.27 0c0,-69.59 1.64,-114.74 -55.59,-171.05 -26.85,-26.43 -78.71,-221.45 -89.05,-260.49 -17.81,-67.21 37.08,-97.29 64.37,-97.29 29.6,0 67.23,37.02 87.1,-35.67 42.63,-155.9 246.29,-146.29 286.52,-7.43 23.56,81.29 46.51,43.1 84.39,43.1 38.15,0 72.02,33.1 73.96,66.54l-78.67 344.25zm878.24 118.04l-103.88 0 203.04 -746.03c25.26,5.88 50.28,13 75.55,18.88 -41.46,177.92 -91.22,369.88 -129.48,545.73 -7.21,33.13 -15.26,58.66 -22,91.33 -4.06,19.66 -16.01,75.05 -23.23,90.09zm-184.15 0l-84.99 0c51.44,-76.8 37.77,-113.16 37.77,-226.64l-127.48 0c-80.09,0 -163.92,78.13 -169.99,151.1 -50.63,-33.91 -48.64,-75.55 -169.98,-75.55 -42.93,0 -73.48,20.57 -99.16,37.77l58.54 -253.1c19.55,-76.97 33.37,-141.99 -33.71,-201.4 -30.87,-27.33 -57.62,-36.57 -114.54,-36.57 -16.64,-71.42 -106.31,-151.09 -193.6,-151.09 -70.69,0 -99.99,3.06 -159.91,47.84 -30.66,22.9 -61.54,60.73 -71.45,103.25 -56.92,0 -83.67,9.24 -114.53,36.57 -103.88,91.99 -19.45,211.99 10.65,341.18l-136.93 0c0,113.48 -13.66,149.84 37.77,226.64 -37.76,0 -75.57,0.16 -113.34,-0.01 -76.49,-0.34 -75.53,5.43 -75.53,66.12 0,131.4 68.91,265.19 144.33,360.9 88.25,111.98 159.5,163.97 271.19,238.76 0,84.62 -15.24,165.27 37.77,165.27l1057.68 0c35.37,0 38.24,-24.93 37.9,-61.26 -0.32,-34.66 -0.12,-69.34 -0.12,-104.01 107.97,-72.3 184.34,-127.69 269.13,-236.08 36.43,-46.58 70.38,-95.42 95.82,-154.44 8.41,-19.5 104.5,-275.25 12.79,-275.25l-136.93 0c1.09,-49.04 174.7,-710.62 174.7,-760.2 0,-33.95 -53.54,-39.36 -81.23,-46.27 -158.79,-39.66 -128.29,-58.98 -188.88,163.34 -45.25,166 -98,372.2 -145.97,533.97 -4.71,15.88 -9.04,34.68 -14.17,51.94 -4.23,14.27 -12.19,40.28 -13.6,57.22z"/>
 </g>
</svg>
