<?xml version="1.0" encoding="UTF-8"?>
<!DOCTYPE svg PUBLIC "-//W3C//DTD SVG 1.1//EN" "http://www.w3.org/Graphics/SVG/1.1/DTD/svg11.dtd">
<!-- Creator: CorelDRAW 2021.5 -->
<svg xmlns="http://www.w3.org/2000/svg" xml:space="preserve" width="22.92mm" height="22.92mm" version="1.1" style="shape-rendering:geometricPrecision; text-rendering:geometricPrecision; image-rendering:optimizeQuality; fill-rule:evenodd; clip-rule:evenodd"
viewBox="0 0 2292 2292"
 xmlns:xlink="http://www.w3.org/1999/xlink"
 xmlns:xodm="http://www.corel.com/coreldraw/odm/2003">
 <defs>
  <style type="text/css">
   <![CDATA[
    .fil0 {fill:#24C95E}
   ]]>
  </style>
 </defs>
 <g id="Слой_x0020_1">
  <metadata id="CorelCorpID_0Corel-Layer"/>
  <g id="_1876719939456">
   <path class="fil0" d="M1046.5 1917.08l188.05 0 0 282.06 -188.05 0 0 -282.06zm-1052.14 -1401.37l0 1271.53c0,32.77 27.48,77.12 45.93,92.86 23.78,20.3 59.03,36.98 101.82,36.98l805.9 0 0 282.06c-50.96,0 -235.47,-7.97 -263.47,9.65 -43.11,27.13 -19.6,88.85 21.7,88.85l868.57 0c40.46,0 63.67,-58.06 24.35,-87.03 -28.13,-20.72 -211.54,-11.47 -266.11,-11.47l0 -282.06 805.89 0c83.49,0 147.75,-66.35 147.75,-129.84l0 -1271.53c0,-63.49 -64.26,-129.84 -147.75,-129.84l-398.47 0c-66.38,0 -68.87,78.12 -23.31,94.94 20.55,7.59 319.03,3.56 363.58,3.56 48.31,0 107.45,-8.06 107.45,40.3l0 1253.61c0,24.14 -22.14,40.3 -44.77,40.3l-2005.79 0c-22.63,0 -44.77,-16.16 -44.77,-40.3l0 -1253.61c0,-47.34 55.83,-40.3 102.98,-40.3 45.06,0.01 343.32,3.78 364.68,-2.44 49.15,-14.32 47.89,-96.06 -19.94,-96.06l-398.47 0c-83.49,0 -147.75,66.35 -147.75,129.84z"/>
   <path class="fil0" d="M1234.55 914.18l80.59 273.11c12.71,46.31 28.05,90.34 41.24,137.85 5.61,20.21 14.12,48.4 20.73,68.81 20.22,62.49 81.14,56.79 98.82,3.38l143.66 -483.15c0,-31.69 -21.13,-49.25 -53.73,-49.25 -37.52,0 -45.01,39.95 -52.78,68.11 -9.02,32.68 -19.17,61.61 -27.81,93.07 -8.79,32.03 -53.24,166.35 -53.73,188.04l-8.95 0c-0.51,-22.88 -69.7,-238.23 -81.54,-281.11 -12.06,-43.69 -16.62,-68.11 -61.73,-68.11 -25.52,0 -44.77,23.56 -44.77,49.25z"/>
   <path class="fil0" d="M710.71 238.13c0,60.43 59.88,72 94.71,27.55 12.36,-15.78 17.64,-21.22 31.73,-35.43 64.29,-64.81 179.02,-126.44 280.99,-126.44 143.23,0 205.89,29.02 303.82,108.08 8.72,7.04 10.67,7.34 19.75,16.07 44.45,42.73 40.63,63.89 83.85,63.89 31.85,0 44.78,-23.49 44.78,-53.72 0,-50.14 -208.75,-232.82 -407.43,-232.82 -121.39,0 -192.81,16.34 -288.5,74.15 -41.18,24.88 -103.17,71.47 -133.02,108.75 -8.12,10.14 -9.64,11.99 -18.46,21.83 -7.69,8.58 -12.22,13.16 -12.22,28.09z"/>
   <path class="fil0" d="M661.47 914.18c0,62.81 93.98,49.25 143.27,49.25l0 420.86c0,72.45 98.49,72.45 98.49,0l0 -420.86c35.15,0 143.27,13.37 143.27,-44.77 0,-28.9 -16.76,-53.73 -44.77,-53.73l-295.49 0c-25.52,0 -44.77,23.56 -44.77,49.25z"/>
   <path class="fil0" d="M943.53 435.12c23.59,0 35.15,-3.7 49.36,-22.27 68.86,-89.93 221.99,-89.16 294.04,-3.25 49.23,58.71 107.09,6.53 90.85,-36.7 -21.67,-57.69 -140.79,-125.82 -223.82,-125.82 -88.63,0 -171.67,30.64 -225.05,88.36 -58.01,62.72 -11.92,99.68 14.62,99.68z"/>
   <path class="fil0" d="M1068.89 551.53c0,100.55 143.27,101.78 143.27,0 0,-91.96 -143.27,-93.83 -143.27,0z"/>
  </g>
 </g>
</svg>
